<?xml version="1.0" encoding="utf-8"?>
<COLLADA xmlns="http://www.collada.org/2005/11/COLLADASchema" version="1.4.1" xmlns:xsi="http://www.w3.org/2001/XMLSchema-instance">
  <asset>
    <contributor>
      <author>Blender User</author>
      <authoring_tool>Blender 4.4.3 commit date:2025-04-29, commit time:14:09, hash:802179c51ccc</authoring_tool>
    </contributor>
    <created>2025-07-02T00:41:28</created>
    <modified>2025-07-02T00:41:28</modified>
    <unit name="meter" meter="1"/>
    <up_axis>Z_UP</up_axis>
  </asset>
  <library_effects>
    <effect id="Material_002-effect">
      <profile_COMMON>
        <technique sid="common">
          <lambert>
            <emission>
              <color sid="emission">0 0 0 1</color>
            </emission>
            <diffuse>
              <color sid="diffuse">0.02323919 0.02111228 0.8003077 1</color>
            </diffuse>
            <index_of_refraction>
              <float sid="ior">1.5</float>
            </index_of_refraction>
          </lambert>
        </technique>
      </profile_COMMON>
    </effect>
  </library_effects>
  <library_images/>
  <library_materials>
    <material id="Material_002-material" name="Material.002">
      <instance_effect url="#Material_002-effect"/>
    </material>
  </library_materials>
  <library_geometries>
    <geometry id="Cone-mesh" name="Cone">
      <mesh>
        <source id="Cone-mesh-positions">
          <float_array id="Cone-mesh-positions-array" count="867">0 0 1 0 0.4942532 -1 0 0.7746958 -0.5493915 0 0.5885904 -0.9913417 0 0.6706439 -0.9656996 0 0.7372605 -0.9240588 0 0.7858802 -0.8680199 0 0.8146345 -0.7997362 0 0.8224183 -0.7218319 0 0.8089327 -0.6373009 0.09642404 0.4847562 -1 0.1511356 0.7598102 -0.5493915 0.1148283 0.5772808 -0.9913417 0.1308361 0.6577576 -0.9656996 0.1438324 0.7230942 -0.9240588 0.1533176 0.7707797 -0.8680199 0.1589273 0.7989814 -0.7997362 0.1604458 0.8066157 -0.7218319 0.1578149 0.7933892 -0.6373009 0.1891424 0.4566305 -1 0.2964633 0.7157255 -0.5493915 0.2252436 0.5437865 -0.9913417 0.2566442 0.6195941 -0.9656996 0.2821373 0.6811398 -0.9240588 0.3007433 0.7260585 -0.8680199 0.3117471 0.7526239 -0.7997362 0.3147258 0.7598153 -0.7218319 0.3095651 0.7473562 -0.6373009 0.2745926 0.4109564 -1 0.4303979 0.644136 -0.5493915 0.3270034 0.4893949 -0.9913417 0.3725899 0.5576199 -0.9656996 0.4096 0.6130096 -0.9240588 0.4366117 0.6534354 -0.8680199 0.4525867 0.6773437 -0.7997362 0.4569111 0.6838157 -0.7218319 0.4494189 0.6726029 -0.6373009 0.3494898 0.3494898 -1 0.5477926 0.5477926 -0.5493915 0.4161962 0.4161962 -0.9913417 0.4742168 0.4742168 -0.9656996 0.5213218 0.5213218 -0.9240588 0.5557011 0.5557011 -0.8680199 0.5760334 0.5760334 -0.7997362 0.5815375 0.5815375 -0.7218319 0.5720017 0.5720017 -0.6373009 0.4109564 0.2745926 -1 0.644136 0.4303979 -0.5493915 0.4893949 0.3270034 -0.9913417 0.5576199 0.3725899 -0.9656996 0.6130096 0.4096 -0.9240588 0.6534354 0.4366117 -0.8680199 0.6773437 0.4525867 -0.7997362 0.6838157 0.4569111 -0.7218319 0.6726029 0.4494189 -0.6373009 0.4566305 0.1891424 -1 0.7157255 0.2964633 -0.5493915 0.5437865 0.2252436 -0.9913417 0.6195941 0.2566442 -0.9656996 0.6811398 0.2821373 -0.9240588 0.7260585 0.3007432 -0.8680199 0.7526239 0.3117471 -0.7997362 0.7598153 0.3147258 -0.7218319 0.7473562 0.3095651 -0.6373009 0.4847562 0.09642404 -1 0.7598102 0.1511356 -0.5493915 0.5772808 0.1148283 -0.9913417 0.6577576 0.1308361 -0.9656996 0.7230942 0.1438324 -0.9240588 0.7707797 0.1533176 -0.8680199 0.7989814 0.1589273 -0.7997362 0.8066157 0.1604458 -0.7218319 0.7933892 0.1578149 -0.6373009 0.4942532 0 -1 0.7746958 0 -0.5493915 0.5885904 0 -0.9913417 0.6706439 0 -0.9656996 0.7372605 0 -0.9240588 0.7858802 0 -0.8680199 0.8146345 0 -0.7997362 0.8224183 0 -0.7218319 0.8089327 0 -0.6373009 0.4847562 -0.09642404 -1 0.7598102 -0.1511356 -0.5493915 0.5772808 -0.1148283 -0.9913417 0.6577576 -0.1308361 -0.9656996 0.7230942 -0.1438324 -0.9240588 0.7707797 -0.1533176 -0.8680199 0.7989814 -0.1589273 -0.7997362 0.8066157 -0.1604458 -0.7218319 0.7933892 -0.1578149 -0.6373009 0.4566305 -0.1891424 -1 0.7157255 -0.2964633 -0.5493915 0.5437865 -0.2252436 -0.9913417 0.6195941 -0.2566442 -0.9656996 0.6811398 -0.2821373 -0.9240588 0.7260585 -0.3007433 -0.8680199 0.7526239 -0.3117471 -0.7997362 0.7598153 -0.3147258 -0.7218319 0.7473562 -0.3095651 -0.6373009 0.4109564 -0.2745926 -1 0.644136 -0.4303979 -0.5493915 0.4893949 -0.3270034 -0.9913417 0.5576199 -0.3725899 -0.9656996 0.6130096 -0.4096 -0.9240588 0.6534354 -0.4366117 -0.8680199 0.6773437 -0.4525867 -0.7997362 0.6838157 -0.4569111 -0.7218319 0.6726029 -0.4494189 -0.6373009 0.3494898 -0.3494898 -1 0.5477926 -0.5477926 -0.5493915 0.4161962 -0.4161962 -0.9913417 0.4742168 -0.4742168 -0.9656996 0.5213218 -0.5213218 -0.9240588 0.5557011 -0.5557011 -0.8680199 0.5760334 -0.5760334 -0.7997362 0.5815375 -0.5815375 -0.7218319 0.5720017 -0.5720017 -0.6373009 0.2745926 -0.4109564 -1 0.4303979 -0.644136 -0.5493915 0.3270034 -0.4893949 -0.9913417 0.3725899 -0.5576199 -0.9656996 0.4096 -0.6130096 -0.9240588 0.4366117 -0.6534354 -0.8680199 0.4525867 -0.6773437 -0.7997362 0.4569111 -0.6838157 -0.7218319 0.4494189 -0.6726029 -0.6373009 0.1891424 -0.4566305 -1 0.2964633 -0.7157255 -0.5493915 0.2252436 -0.5437865 -0.9913417 0.2566442 -0.6195941 -0.9656996 0.2821373 -0.6811398 -0.9240588 0.3007432 -0.7260585 -0.8680199 0.3117471 -0.7526239 -0.7997362 0.3147258 -0.7598153 -0.7218319 0.3095651 -0.7473562 -0.6373009 0.09642404 -0.4847562 -1 0.1511356 -0.7598102 -0.5493915 0.1148283 -0.5772808 -0.9913417 0.1308361 -0.6577576 -0.9656996 0.1438324 -0.7230942 -0.9240588 0.1533176 -0.7707797 -0.8680199 0.1589273 -0.7989814 -0.7997362 0.1604458 -0.8066157 -0.7218319 0.1578149 -0.7933892 -0.6373009 0 -0.4942532 -1 0 -0.7746958 -0.5493915 0 -0.5885904 -0.9913417 0 -0.6706439 -0.9656996 0 -0.7372605 -0.9240588 0 -0.7858802 -0.8680199 0 -0.8146345 -0.7997362 0 -0.8224183 -0.7218319 0 -0.8089327 -0.6373009 -0.09642404 -0.4847562 -1 -0.1511356 -0.7598102 -0.5493915 -0.1148283 -0.5772808 -0.9913417 -0.1308361 -0.6577576 -0.9656996 -0.1438324 -0.7230942 -0.9240588 -0.1533176 -0.7707797 -0.8680199 -0.1589273 -0.7989814 -0.7997362 -0.1604458 -0.8066157 -0.7218319 -0.1578149 -0.7933892 -0.6373009 -0.1891424 -0.4566305 -1 -0.2964633 -0.7157255 -0.5493915 -0.2252436 -0.5437865 -0.9913417 -0.2566442 -0.6195941 -0.9656996 -0.2821373 -0.6811398 -0.9240588 -0.3007433 -0.7260585 -0.8680199 -0.3117471 -0.7526239 -0.7997362 -0.3147258 -0.7598153 -0.7218319 -0.3095651 -0.7473562 -0.6373009 -0.2745926 -0.4109564 -1 -0.4303979 -0.644136 -0.5493915 -0.3270034 -0.4893949 -0.9913417 -0.3725899 -0.5576199 -0.9656996 -0.4096 -0.6130096 -0.9240588 -0.4366117 -0.6534354 -0.8680199 -0.4525867 -0.6773437 -0.7997362 -0.4569111 -0.6838157 -0.7218319 -0.4494189 -0.6726029 -0.6373009 -0.3494898 -0.3494898 -1 -0.5477926 -0.5477926 -0.5493915 -0.4161962 -0.4161962 -0.9913417 -0.4742168 -0.4742168 -0.9656996 -0.5213218 -0.5213218 -0.9240588 -0.5557011 -0.5557011 -0.8680199 -0.5760334 -0.5760334 -0.7997362 -0.5815375 -0.5815375 -0.7218319 -0.5720017 -0.5720017 -0.6373009 -0.4109564 -0.2745926 -1 -0.644136 -0.4303979 -0.5493915 -0.4893949 -0.3270034 -0.9913417 -0.5576199 -0.3725899 -0.9656996 -0.6130096 -0.4096 -0.9240588 -0.6534354 -0.4366117 -0.8680199 -0.6773437 -0.4525867 -0.7997362 -0.6838157 -0.4569111 -0.7218319 -0.6726029 -0.4494189 -0.6373009 -0.4566305 -0.1891424 -1 -0.7157255 -0.2964633 -0.5493915 -0.5437865 -0.2252436 -0.9913417 -0.6195941 -0.2566442 -0.9656996 -0.6811398 -0.2821373 -0.9240588 -0.7260585 -0.3007432 -0.8680199 -0.7526239 -0.3117471 -0.7997362 -0.7598153 -0.3147258 -0.7218319 -0.7473562 -0.3095651 -0.6373009 -0.4847562 -0.09642404 -1 -0.7598102 -0.1511356 -0.5493915 -0.5772808 -0.1148283 -0.9913417 -0.6577576 -0.1308361 -0.9656996 -0.7230942 -0.1438324 -0.9240588 -0.7707797 -0.1533176 -0.8680199 -0.7989814 -0.1589273 -0.7997362 -0.8066157 -0.1604458 -0.7218319 -0.7933892 -0.1578149 -0.6373009 -0.4942532 0 -1 -0.7746958 0 -0.5493915 -0.5885904 0 -0.9913417 -0.6706439 0 -0.9656996 -0.7372605 0 -0.9240588 -0.7858802 0 -0.8680199 -0.8146345 0 -0.7997362 -0.8224183 0 -0.7218319 -0.8089327 0 -0.6373009 -0.4847562 0.09642404 -1 -0.7598102 0.1511356 -0.5493915 -0.5772808 0.1148283 -0.9913417 -0.6577576 0.1308361 -0.9656996 -0.7230942 0.1438324 -0.9240588 -0.7707797 0.1533176 -0.8680199 -0.7989814 0.1589273 -0.7997362 -0.8066157 0.1604458 -0.7218319 -0.7933892 0.1578149 -0.6373009 -0.4566305 0.1891424 -1 -0.7157255 0.2964633 -0.5493915 -0.5437865 0.2252436 -0.9913417 -0.6195941 0.2566442 -0.9656996 -0.6811398 0.2821373 -0.9240588 -0.7260585 0.3007433 -0.8680199 -0.7526239 0.3117471 -0.7997362 -0.7598153 0.3147258 -0.7218319 -0.7473562 0.3095651 -0.6373009 -0.4109564 0.2745926 -1 -0.644136 0.4303979 -0.5493915 -0.4893949 0.3270034 -0.9913417 -0.5576199 0.3725899 -0.9656996 -0.6130096 0.4096 -0.9240588 -0.6534354 0.4366117 -0.8680199 -0.6773437 0.4525867 -0.7997362 -0.6838157 0.4569111 -0.7218319 -0.6726029 0.4494189 -0.6373009 -0.3494898 0.3494898 -1 -0.5477926 0.5477926 -0.5493915 -0.4161962 0.4161962 -0.9913417 -0.4742168 0.4742168 -0.9656996 -0.5213218 0.5213218 -0.9240588 -0.5557011 0.5557011 -0.8680199 -0.5760334 0.5760334 -0.7997362 -0.5815375 0.5815375 -0.7218319 -0.5720017 0.5720017 -0.6373009 -0.2745926 0.4109564 -1 -0.4303979 0.644136 -0.5493915 -0.3270034 0.4893949 -0.9913417 -0.3725899 0.5576199 -0.9656996 -0.4096 0.6130096 -0.9240588 -0.4366117 0.6534354 -0.8680199 -0.4525867 0.6773437 -0.7997362 -0.4569111 0.6838157 -0.7218319 -0.4494189 0.6726029 -0.6373009 -0.1891424 0.4566305 -1 -0.2964633 0.7157255 -0.5493915 -0.2252436 0.5437865 -0.9913417 -0.2566442 0.6195941 -0.9656996 -0.2821373 0.6811398 -0.9240588 -0.3007432 0.7260585 -0.8680199 -0.3117471 0.7526239 -0.7997362 -0.3147258 0.7598153 -0.7218319 -0.3095651 0.7473562 -0.6373009 -0.09642404 0.4847562 -1 -0.1511356 0.7598102 -0.5493915 -0.1148283 0.5772808 -0.9913417 -0.1308361 0.6577576 -0.9656996 -0.1438324 0.7230942 -0.9240588 -0.1533176 0.7707797 -0.8680199 -0.1589273 0.7989814 -0.7997362 -0.1604458 0.8066157 -0.7218319 -0.1578149 0.7933892 -0.6373009</float_array>
          <technique_common>
            <accessor source="#Cone-mesh-positions-array" count="289" stride="3">
              <param name="X" type="float"/>
              <param name="Y" type="float"/>
              <param name="Z" type="float"/>
            </accessor>
          </technique_common>
        </source>
        <source id="Cone-mesh-normals">
          <float_array id="Cone-mesh-normals-array" count="1722">-0.08775389 0.8909766 0.4454883 0.4220353 0.7895736 0.4454883 0.567965 0.6920664 0.4454883 0.6920664 0.567965 0.4454883 0.7895736 0.4220353 0.4454883 0.856737 0.2598884 0.4454883 0.8909766 0.08775389 0.4454883 0.8909766 -0.08775389 0.4454883 0.856737 -0.2598884 0.4454883 0.7895736 -0.4220353 0.4454883 0.6920664 -0.567965 0.4454883 0.567965 -0.6920664 0.4454883 0.4220353 -0.7895736 0.4454883 0.2598884 -0.856737 0.4454883 0.08775389 -0.8909766 0.4454883 -0.08775389 -0.8909766 0.4454883 -0.2598884 -0.856737 0.4454883 -0.4220353 -0.7895736 0.4454883 -0.567965 -0.6920664 0.4454883 -0.6920664 -0.567965 0.4454883 -0.7895736 -0.4220353 0.4454883 -0.856737 -0.2598884 0.4454883 -0.8909766 -0.08775389 0.4454883 -0.8909766 0.08775389 0.4454883 -0.856737 0.2598884 0.4454883 -0.7895736 0.4220353 0.4454883 -0.6920664 0.567965 0.4454883 -0.567965 0.6920664 0.4454883 -0.4220353 0.7895736 0.4454883 -0.2598884 0.856737 0.4454883 0.08775389 0.8909766 0.4454883 0.2598884 0.856737 0.4454883 0.09139329 0.9279258 0.3613876 0.09680515 0.9828743 0.1568022 0.09753662 0.9903011 -0.09894698 0.09040015 0.917846 -0.3865055 0.07418936 0.7532567 -0.6535291 0.05213433 0.5293275 -0.8468143 0.02936536 0.2981508 -0.954067 0.009001374 0.09139239 -0.9957743 0.2706666 0.8922662 0.361387 0.2866942 0.9451029 0.1568025 0.2888605 0.9522443 -0.09894645 0.2677266 0.8825737 -0.386505 0.2197173 0.7243092 -0.6535293 0.1543993 0.5089856 -0.8468143 0.08696758 0.2866931 -0.9540669 0.02665823 0.08788025 -0.9957743 0.4395378 0.8223177 0.3613863 0.4655655 0.8710119 0.1568028 0.4690834 0.8775935 -0.09894728 0.4347631 0.8133849 -0.3865048 0.3568009 0.6675275 -0.6535289 0.2507302 0.4690838 -0.8468145 0.1412272 0.264218 -0.954067 0.04329055 0.08099097 -0.9957742 0.5915188 0.720767 0.3613869 0.6265463 0.7634481 0.1568018 0.6312803 0.7692171 -0.09894657 0.5850933 0.7129374 -0.3865052 0.4801734 0.5850924 -0.6535292 0.3374269 0.4111556 -0.8468142 0.1900602 0.2315889 -0.9540669 0.0582593 0.07098913 -0.9957742 0.720767 0.5915187 0.3613869 0.7634483 0.6265459 0.1568026 0.7692167 0.6312806 -0.09894752 0.7129374 0.5850932 -0.3865051 0.5850928 0.4801734 -0.6535288 0.4111556 0.3374268 -0.8468142 0.2315889 0.1900602 -0.9540669 0.07098913 0.0582593 -0.9957743 0.8223177 0.4395372 0.361387 0.8710123 0.465565 0.1568017 0.8775936 0.4690831 -0.09894663 0.8133849 0.4347628 -0.3865053 0.6675274 0.3568006 -0.6535292 0.4690842 0.2507305 -0.8468141 0.264218 0.1412273 -0.9540669 0.08099097 0.04329049 -0.9957743 0.8922666 0.2706663 0.3613862 0.9451027 0.2866944 0.156803 0.952244 0.288861 -0.0989474 0.8825738 0.2677267 -0.3865048 0.724309 0.2197174 -0.6535294 0.5089857 0.1543995 -0.8468142 0.286693 0.08696764 -0.9540669 0.08788037 0.02665817 -0.9957742 0.927926 0.09139299 0.361387 0.9828742 0.09680533 0.1568025 0.990301 0.09753638 -0.09894639 0.9178462 0.09039998 -0.3865051 0.7532565 0.07418948 -0.6535294 0.5293273 0.05213433 -0.8468144 0.298151 0.02936536 -0.9540669 0.09139239 0.009001374 -0.9957743 0.9279258 -0.09139329 0.3613876 0.9828743 -0.09680515 0.1568022 0.9903011 -0.09753662 -0.09894698 0.917846 -0.09040015 -0.3865055 0.7532567 -0.07418936 -0.6535291 0.5293275 -0.05213433 -0.8468143 0.2981508 -0.02936536 -0.954067 0.09139239 -0.009001374 -0.9957743 0.8922662 -0.2706666 0.361387 0.9451029 -0.2866942 0.1568025 0.9522443 -0.2888605 -0.09894645 0.8825737 -0.2677266 -0.386505 0.7243092 -0.2197173 -0.6535293 0.5089856 -0.1543993 -0.8468143 0.2866931 -0.08696758 -0.9540669 0.08788025 -0.02665823 -0.9957743 0.8223177 -0.4395378 0.3613863 0.8710119 -0.4655655 0.1568028 0.8775935 -0.4690834 -0.09894728 0.8133849 -0.4347631 -0.3865048 0.6675275 -0.3568009 -0.6535289 0.4690838 -0.2507302 -0.8468145 0.264218 -0.1412272 -0.954067 0.08099097 -0.04329055 -0.9957742 0.720767 -0.5915188 0.3613869 0.7634481 -0.6265463 0.1568018 0.7692171 -0.6312803 -0.09894657 0.7129374 -0.5850933 -0.3865052 0.5850924 -0.4801734 -0.6535292 0.4111556 -0.3374269 -0.8468142 0.2315889 -0.1900602 -0.9540669 0.07098913 -0.0582593 -0.9957742 0.5915187 -0.720767 0.3613869 0.6265459 -0.7634483 0.1568026 0.6312806 -0.7692167 -0.09894752 0.5850932 -0.7129374 -0.3865051 0.4801734 -0.5850928 -0.6535288 0.3374268 -0.4111556 -0.8468142 0.1900602 -0.2315889 -0.9540669 0.0582593 -0.07098913 -0.9957743 0.4395372 -0.8223177 0.361387 0.465565 -0.8710123 0.1568017 0.4690831 -0.8775936 -0.09894663 0.4347628 -0.8133849 -0.3865053 0.3568006 -0.6675274 -0.6535292 0.2507305 -0.4690842 -0.8468141 0.1412273 -0.264218 -0.9540669 0.04329049 -0.08099097 -0.9957743 0.2706663 -0.8922666 0.3613862 0.2866944 -0.9451027 0.156803 0.288861 -0.952244 -0.0989474 0.2677267 -0.8825738 -0.3865048 0.2197174 -0.724309 -0.6535294 0.1543995 -0.5089857 -0.8468142 0.08696764 -0.286693 -0.9540669 0.02665817 -0.08788037 -0.9957742 0.09139299 -0.927926 0.361387 0.09680533 -0.9828742 0.1568025 0.09753638 -0.990301 -0.09894639 0.09039998 -0.9178462 -0.3865051 0.07418948 -0.7532565 -0.6535294 0.05213433 -0.5293273 -0.8468144 0.02936536 -0.298151 -0.9540669 0.009001374 -0.09139239 -0.9957743 -0.09139329 -0.9279258 0.3613876 -0.09680515 -0.9828743 0.1568022 -0.09753662 -0.9903011 -0.09894698 -0.09040015 -0.917846 -0.3865055 -0.07418936 -0.7532567 -0.6535291 -0.05213433 -0.5293275 -0.8468143 -0.02936536 -0.2981508 -0.954067 -0.009001374 -0.09139239 -0.9957743 -0.2706666 -0.8922662 0.361387 -0.2866942 -0.9451029 0.1568025 -0.2888605 -0.9522443 -0.09894645 -0.2677266 -0.8825737 -0.386505 -0.2197173 -0.7243092 -0.6535293 -0.1543993 -0.5089856 -0.8468143 -0.08696758 -0.2866931 -0.9540669 -0.02665823 -0.08788025 -0.9957743 -0.4395378 -0.8223177 0.3613863 -0.4655655 -0.8710119 0.1568028 -0.4690834 -0.8775935 -0.09894728 -0.4347631 -0.8133849 -0.3865048 -0.3568009 -0.6675275 -0.6535289 -0.2507302 -0.4690838 -0.8468145 -0.1412272 -0.264218 -0.954067 -0.04329055 -0.08099097 -0.9957742 -0.5915188 -0.720767 0.3613869 -0.6265463 -0.7634481 0.1568018 -0.6312803 -0.7692171 -0.09894657 -0.5850933 -0.7129374 -0.3865052 -0.4801734 -0.5850924 -0.6535292 -0.3374269 -0.4111556 -0.8468142 -0.1900602 -0.2315889 -0.9540669 -0.0582593 -0.07098913 -0.9957742 -0.720767 -0.5915187 0.3613869 -0.7634483 -0.6265459 0.1568026 -0.7692167 -0.6312806 -0.09894752 -0.7129374 -0.5850932 -0.3865051 -0.5850928 -0.4801734 -0.6535288 -0.4111556 -0.3374268 -0.8468142 -0.2315889 -0.1900602 -0.9540669 -0.07098913 -0.0582593 -0.9957743 -0.8223177 -0.4395372 0.361387 -0.8710123 -0.465565 0.1568017 -0.8775936 -0.4690831 -0.09894663 -0.8133849 -0.4347628 -0.3865053 -0.6675274 -0.3568006 -0.6535292 -0.4690842 -0.2507305 -0.8468141 -0.264218 -0.1412273 -0.9540669 -0.08099097 -0.04329049 -0.9957743 -0.8922666 -0.2706663 0.3613862 -0.9451027 -0.2866944 0.156803 -0.952244 -0.288861 -0.0989474 -0.8825738 -0.2677267 -0.3865048 -0.724309 -0.2197174 -0.6535294 -0.5089857 -0.1543995 -0.8468142 -0.286693 -0.08696764 -0.9540669 -0.08788037 -0.02665817 -0.9957742 -0.927926 -0.09139299 0.361387 -0.9828742 -0.09680533 0.1568025 -0.990301 -0.09753638 -0.09894639 -0.9178462 -0.09039998 -0.3865051 -0.7532565 -0.07418948 -0.6535294 -0.5293273 -0.05213433 -0.8468144 -0.298151 -0.02936536 -0.9540669 -0.09139239 -0.009001374 -0.9957743 -0.9279258 0.09139329 0.3613876 -0.9828743 0.09680515 0.1568022 -0.9903011 0.09753662 -0.09894698 -0.917846 0.09040015 -0.3865055 -0.7532567 0.07418936 -0.6535291 -0.5293275 0.05213433 -0.8468143 -0.2981508 0.02936536 -0.954067 -0.09139239 0.009001374 -0.9957743 -0.8922662 0.2706666 0.361387 -0.9451029 0.2866942 0.1568025 -0.9522443 0.2888605 -0.09894645 -0.8825737 0.2677266 -0.386505 -0.7243092 0.2197173 -0.6535293 -0.5089856 0.1543993 -0.8468143 -0.2866931 0.08696758 -0.9540669 -0.08788025 0.02665823 -0.9957743 -0.8223177 0.4395378 0.3613863 -0.8710119 0.4655655 0.1568028 -0.8775935 0.4690834 -0.09894728 -0.8133849 0.4347631 -0.3865048 -0.6675275 0.3568009 -0.6535289 -0.4690838 0.2507302 -0.8468145 -0.264218 0.1412272 -0.954067 -0.08099097 0.04329055 -0.9957742 -0.720767 0.5915188 0.3613869 -0.7634481 0.6265463 0.1568018 -0.7692171 0.6312803 -0.09894657 -0.7129374 0.5850933 -0.3865052 -0.5850924 0.4801734 -0.6535292 -0.4111556 0.3374269 -0.8468142 -0.2315889 0.1900602 -0.9540669 -0.07098913 0.0582593 -0.9957742 -0.5915187 0.720767 0.3613869 -0.6265459 0.7634483 0.1568026 -0.6312806 0.7692167 -0.09894752 -0.5850932 0.7129374 -0.3865051 -0.4801734 0.5850928 -0.6535288 -0.3374268 0.4111556 -0.8468142 -0.1900602 0.2315889 -0.9540669 -0.0582593 0.07098913 -0.9957743 -0.4395372 0.8223177 0.361387 -0.465565 0.8710123 0.1568017 -0.4690831 0.8775936 -0.09894663 -0.4347628 0.8133849 -0.3865053 -0.3568006 0.6675274 -0.6535292 -0.2507305 0.4690842 -0.8468141 -0.1412273 0.264218 -0.9540669 -0.04329049 0.08099097 -0.9957743 -0.2706663 0.8922666 0.3613862 -0.2866944 0.9451027 0.156803 -0.288861 0.952244 -0.0989474 -0.2677267 0.8825738 -0.3865048 -0.2197174 0.724309 -0.6535294 -0.1543995 0.5089857 -0.8468142 -0.08696764 0.286693 -0.9540669 -0.02665817 0.08788037 -0.9957742 -0.09139299 0.927926 0.361387 -0.09680533 0.9828742 0.1568025 -0.09753638 0.990301 -0.09894639 -0.09039998 0.9178462 -0.3865051 -0.07418948 0.7532565 -0.6535294 -0.05213433 0.5293273 -0.8468144 -0.02936536 0.298151 -0.9540669 -0.009001374 0.09139239 -0.9957743 0 0 -1 0.09139299 0.927926 0.361387 0.09680527 0.9828742 0.1568024 0.09753638 0.990301 -0.09894645 0.09039998 0.9178462 -0.3865051 0.07418948 0.7532565 -0.6535293 0.05213433 0.5293273 -0.8468144 0.0293653 0.2981509 -0.9540669 0.009001374 0.09139239 -0.9957743 0.2706663 0.8922666 0.3613862 0.2866944 0.9451027 0.156803 0.288861 0.9522441 -0.0989474 0.2677265 0.8825739 -0.3865047 0.2197172 0.7243095 -0.653529 0.1543993 0.5089854 -0.8468145 0.08696764 0.286693 -0.9540669 0.02665817 0.08788037 -0.9957743 0.4395372 0.8223177 0.3613869 0.465565 0.8710123 0.1568018 0.4690831 0.8775936 -0.09894657 0.4347628 0.8133849 -0.3865053 0.3568007 0.6675274 -0.6535292 0.2507307 0.469084 -0.8468142 0.1412273 0.264218 -0.9540669 0.04329049 0.08099097 -0.9957743 0.5915187 0.7207669 0.361387 0.6265459 0.7634483 0.1568026 0.6312806 0.7692167 -0.09894752 0.5850932 0.7129374 -0.3865052 0.4801734 0.5850928 -0.6535288 0.3374268 0.4111556 -0.8468142 0.1900602 0.2315889 -0.9540669 0.0582593 0.07098913 -0.9957743 0.720767 0.5915188 0.361387 0.7634481 0.6265463 0.1568018 0.7692171 0.6312803 -0.09894657 0.7129374 0.5850933 -0.3865052 0.5850924 0.4801734 -0.6535292 0.4111556 0.3374268 -0.8468142 0.2315889 0.1900602 -0.9540669 0.07098913 0.0582593 -0.9957742 0.8223177 0.4395378 0.3613863 0.8710119 0.4655655 0.1568028 0.8775935 0.4690834 -0.09894728 0.813385 0.4347631 -0.3865049 0.6675273 0.3568004 -0.6535295 0.4690842 0.2507303 -0.8468143 0.264218 0.1412272 -0.954067 0.08099097 0.04329055 -0.9957742 0.8922662 0.2706666 0.361387 0.9451029 0.2866942 0.1568025 0.9522443 0.2888605 -0.09894639 0.8825738 0.2677265 -0.3865051 0.7243092 0.2197173 -0.6535292 0.5089856 0.1543995 -0.8468143 0.2866932 0.08696758 -0.9540669 0.08788025 0.02665823 -0.9957743 0.9279258 0.09139329 0.3613876 0.9828743 0.09680515 0.1568022 0.9903011 0.09753662 -0.09894698 0.917846 0.09040015 -0.3865054 0.7532567 0.07418936 -0.6535291 0.5293275 0.05213433 -0.8468143 0.2981508 0.02936536 -0.954067 0.09139239 0.009001374 -0.9957743 0.927926 -0.09139299 0.361387 0.9828742 -0.09680527 0.1568024 0.990301 -0.09753638 -0.09894645 0.9178462 -0.09039998 -0.3865051 0.7532565 -0.07418948 -0.6535293 0.5293273 -0.05213433 -0.8468144 0.2981509 -0.0293653 -0.9540669 0.09139239 -0.009001374 -0.9957743 0.8922666 -0.2706663 0.3613862 0.9451027 -0.2866944 0.156803 0.9522441 -0.288861 -0.0989474 0.8825739 -0.2677265 -0.3865047 0.7243095 -0.2197172 -0.653529 0.5089854 -0.1543993 -0.8468145 0.286693 -0.08696764 -0.9540669 0.08788037 -0.02665817 -0.9957743 0.8223177 -0.4395372 0.3613869 0.8710123 -0.465565 0.1568018 0.8775936 -0.4690831 -0.09894657 0.8133849 -0.4347628 -0.3865053 0.6675274 -0.3568007 -0.6535292 0.469084 -0.2507307 -0.8468142 0.264218 -0.1412273 -0.9540669 0.08099097 -0.04329049 -0.9957743 0.7207669 -0.5915187 0.361387 0.7634483 -0.6265459 0.1568026 0.7692167 -0.6312806 -0.09894752 0.7129374 -0.5850932 -0.3865052 0.5850928 -0.4801734 -0.6535288 0.4111556 -0.3374268 -0.8468142 0.2315889 -0.1900602 -0.9540669 0.07098913 -0.0582593 -0.9957743 0.5915188 -0.720767 0.361387 0.6265463 -0.7634481 0.1568018 0.6312803 -0.7692171 -0.09894657 0.5850933 -0.7129374 -0.3865052 0.4801734 -0.5850924 -0.6535292 0.3374268 -0.4111556 -0.8468142 0.1900602 -0.2315889 -0.9540669 0.0582593 -0.07098913 -0.9957742 0.4395378 -0.8223177 0.3613863 0.4655655 -0.8710119 0.1568028 0.4690834 -0.8775935 -0.09894728 0.4347631 -0.813385 -0.3865049 0.3568004 -0.6675273 -0.6535295 0.2507303 -0.4690842 -0.8468143 0.1412272 -0.264218 -0.954067 0.04329055 -0.08099097 -0.9957742 0.2706666 -0.8922662 0.361387 0.2866942 -0.9451029 0.1568025 0.2888605 -0.9522443 -0.09894639 0.2677265 -0.8825738 -0.3865051 0.2197173 -0.7243092 -0.6535292 0.1543995 -0.5089856 -0.8468143 0.08696758 -0.2866932 -0.9540669 0.02665823 -0.08788025 -0.9957743 0.09139329 -0.9279258 0.3613876 0.09680515 -0.9828743 0.1568022 0.09753662 -0.9903011 -0.09894698 0.09040015 -0.917846 -0.3865054 0.07418936 -0.7532567 -0.6535291 0.05213433 -0.5293275 -0.8468143 0.02936536 -0.2981508 -0.954067 0.009001374 -0.09139239 -0.9957743 -0.09139299 -0.927926 0.361387 -0.09680527 -0.9828742 0.1568024 -0.09753638 -0.990301 -0.09894645 -0.09039998 -0.9178462 -0.3865051 -0.07418948 -0.7532565 -0.6535293 -0.05213433 -0.5293273 -0.8468144 -0.0293653 -0.2981509 -0.9540669 -0.009001374 -0.09139239 -0.9957743 -0.2706663 -0.8922666 0.3613862 -0.2866944 -0.9451027 0.156803 -0.288861 -0.9522441 -0.0989474 -0.2677265 -0.8825739 -0.3865047 -0.2197172 -0.7243095 -0.653529 -0.1543993 -0.5089854 -0.8468145 -0.08696764 -0.286693 -0.9540669 -0.02665817 -0.08788037 -0.9957743 -0.4395372 -0.8223177 0.3613869 -0.465565 -0.8710123 0.1568018 -0.4690831 -0.8775936 -0.09894657 -0.4347628 -0.8133849 -0.3865053 -0.3568007 -0.6675274 -0.6535292 -0.2507307 -0.469084 -0.8468142 -0.1412273 -0.264218 -0.9540669 -0.04329049 -0.08099097 -0.9957743 -0.5915187 -0.7207669 0.361387 -0.6265459 -0.7634483 0.1568026 -0.6312806 -0.7692167 -0.09894752 -0.5850932 -0.7129374 -0.3865052 -0.4801734 -0.5850928 -0.6535288 -0.3374268 -0.4111556 -0.8468142 -0.1900602 -0.2315889 -0.9540669 -0.0582593 -0.07098913 -0.9957743 -0.720767 -0.5915188 0.361387 -0.7634481 -0.6265463 0.1568018 -0.7692171 -0.6312803 -0.09894657 -0.7129374 -0.5850933 -0.3865052 -0.5850924 -0.4801734 -0.6535292 -0.4111556 -0.3374268 -0.8468142 -0.2315889 -0.1900602 -0.9540669 -0.07098913 -0.0582593 -0.9957742 -0.8223177 -0.4395378 0.3613863 -0.8710119 -0.4655655 0.1568028 -0.8775935 -0.4690834 -0.09894728 -0.813385 -0.4347631 -0.3865049 -0.6675273 -0.3568004 -0.6535295 -0.4690842 -0.2507303 -0.8468143 -0.264218 -0.1412272 -0.954067 -0.08099097 -0.04329055 -0.9957742 -0.8922662 -0.2706666 0.361387 -0.9451029 -0.2866942 0.1568025 -0.9522443 -0.2888605 -0.09894639 -0.8825738 -0.2677265 -0.3865051 -0.7243092 -0.2197173 -0.6535292 -0.5089856 -0.1543995 -0.8468143 -0.2866932 -0.08696758 -0.9540669 -0.08788025 -0.02665823 -0.9957743 -0.9279258 -0.09139329 0.3613876 -0.9828743 -0.09680515 0.1568022 -0.9903011 -0.09753662 -0.09894698 -0.917846 -0.09040015 -0.3865054 -0.7532567 -0.07418936 -0.6535291 -0.5293275 -0.05213433 -0.8468143 -0.2981508 -0.02936536 -0.954067 -0.09139239 -0.009001374 -0.9957743 -0.927926 0.09139299 0.361387 -0.9828742 0.09680527 0.1568024 -0.990301 0.09753638 -0.09894645 -0.9178462 0.09039998 -0.3865051 -0.7532565 0.07418948 -0.6535293 -0.5293273 0.05213433 -0.8468144 -0.2981509 0.0293653 -0.9540669 -0.09139239 0.009001374 -0.9957743 -0.8922666 0.2706663 0.3613862 -0.9451027 0.2866944 0.156803 -0.9522441 0.288861 -0.0989474 -0.8825739 0.2677265 -0.3865047 -0.7243095 0.2197172 -0.653529 -0.5089854 0.1543993 -0.8468145 -0.286693 0.08696764 -0.9540669 -0.08788037 0.02665817 -0.9957743 -0.8223177 0.4395372 0.3613869 -0.8710123 0.465565 0.1568018 -0.8775936 0.4690831 -0.09894657 -0.8133849 0.4347628 -0.3865053 -0.6675274 0.3568007 -0.6535292 -0.469084 0.2507307 -0.8468142 -0.264218 0.1412273 -0.9540669 -0.08099097 0.04329049 -0.9957743 -0.7207669 0.5915187 0.361387 -0.7634483 0.6265459 0.1568026 -0.7692167 0.6312806 -0.09894752 -0.7129374 0.5850932 -0.3865052 -0.5850928 0.4801734 -0.6535288 -0.4111556 0.3374268 -0.8468142 -0.2315889 0.1900602 -0.9540669 -0.07098913 0.0582593 -0.9957743 -0.5915188 0.720767 0.361387 -0.6265463 0.7634481 0.1568018 -0.6312803 0.7692171 -0.09894657 -0.5850933 0.7129374 -0.3865052 -0.4801734 0.5850924 -0.6535292 -0.3374268 0.4111556 -0.8468142 -0.1900602 0.2315889 -0.9540669 -0.0582593 0.07098913 -0.9957742 -0.4395378 0.8223177 0.3613863 -0.4655655 0.8710119 0.1568028 -0.4690834 0.8775935 -0.09894728 -0.4347631 0.813385 -0.3865049 -0.3568004 0.6675273 -0.6535295 -0.2507303 0.4690842 -0.8468143 -0.1412272 0.264218 -0.954067 -0.04329055 0.08099097 -0.9957742 -0.2706666 0.8922662 0.361387 -0.2866942 0.9451029 0.1568025 -0.2888605 0.9522443 -0.09894639 -0.2677265 0.8825738 -0.3865051 -0.2197173 0.7243092 -0.6535292 -0.1543995 0.5089856 -0.8468143 -0.08696758 0.2866932 -0.9540669 -0.02665823 0.08788025 -0.9957743 -0.09139329 0.9279258 0.3613876 -0.09680515 0.9828743 0.1568022 -0.09753662 0.9903011 -0.09894698 -0.09040015 0.917846 -0.3865054 -0.07418936 0.7532567 -0.6535291 -0.05213433 0.5293275 -0.8468143 -0.02936536 0.2981508 -0.954067 -0.009001374 0.09139239 -0.9957743 0 0 -1 0 0 -1 0 0 -1 0 0 -1 0 0 -1 0 0 -1 0 0 -1 0 0 -1 0 0 -1 0 0 -1 0 0 -1 0 0 -1 0 0 -1 0 0 -1 0 0 -1 0 0 -1 0 0 -1 0 0 -1 0 0 -1 0 0 -1 0 0 -1 0 0 -1 0 0 -1 0 0 -1 0 0 -1 0 0 -1 0 0 -1 0 0 -1 0 0 -1</float_array>
          <technique_common>
            <accessor source="#Cone-mesh-normals-array" count="574" stride="3">
              <param name="X" type="float"/>
              <param name="Y" type="float"/>
              <param name="Z" type="float"/>
            </accessor>
          </technique_common>
        </source>
        <source id="Cone-mesh-map-0">
          <float_array id="Cone-mesh-map-0-array" count="3444">0.2137274 0.4323545 0.25 0.25 0.25 0.435927 0.3211511 0.4217741 0.25 0.25 0.3532955 0.4045926 0.3532955 0.4045926 0.25 0.25 0.3814702 0.3814702 0.3814702 0.3814702 0.25 0.25 0.4045926 0.3532955 0.4045926 0.3532955 0.25 0.25 0.4217741 0.3211511 0.4217741 0.3211511 0.25 0.25 0.4323545 0.2862725 0.4323545 0.2862725 0.25 0.25 0.435927 0.25 0.435927 0.25 0.25 0.25 0.4323545 0.2137274 0.4323545 0.2137274 0.25 0.25 0.4217741 0.1788488 0.4217741 0.1788488 0.25 0.25 0.4045926 0.1467044 0.4045926 0.1467045 0.25 0.25 0.3814702 0.1185297 0.3814702 0.1185297 0.25 0.25 0.3532955 0.09540736 0.3532955 0.09540736 0.25 0.25 0.3211511 0.07822585 0.3211511 0.07822585 0.25 0.25 0.2862725 0.06764554 0.2862725 0.06764554 0.25 0.25 0.25 0.06407302 0.25 0.06407302 0.25 0.25 0.2137274 0.06764554 0.2137274 0.06764554 0.25 0.25 0.1788488 0.07822585 0.1788488 0.07822585 0.25 0.25 0.1467044 0.09540736 0.1467045 0.09540736 0.25 0.25 0.1185297 0.1185297 0.1185297 0.1185297 0.25 0.25 0.09540736 0.1467045 0.09540736 0.1467045 0.25 0.25 0.07822585 0.1788488 0.07822585 0.1788488 0.25 0.25 0.06764554 0.2137274 0.06764554 0.2137274 0.25 0.25 0.06407302 0.25 0.06407302 0.25 0.25 0.25 0.06764554 0.2862725 0.06764554 0.2862725 0.25 0.25 0.07822585 0.3211512 0.07822585 0.3211511 0.25 0.25 0.09540736 0.3532955 0.09540736 0.3532955 0.25 0.25 0.1185297 0.3814702 0.1185297 0.3814702 0.25 0.25 0.1467045 0.4045926 0.1467045 0.4045926 0.25 0.25 0.1788488 0.4217741 0.1788488 0.4217741 0.25 0.25 0.2137274 0.4323545 0.25 0.435927 0.25 0.25 0.2862725 0.4323545 0.2862725 0.4323545 0.25 0.25 0.3211512 0.4217741 0.25 0.435927 0.2880579 0.4422648 0.2501824 0.4459953 0.2501824 0.4459953 0.2892294 0.4509224 0.2507224 0.454715 0.2892294 0.4509224 0.2515994 0.4617511 0.2507224 0.454715 0.2897419 0.4579944 0.2550127 0.4895063 0.2515994 0.4617511 0.791809 0.4858822 0.7500001 0.4269425 0.7550128 0.4895063 0.7845197 0.4235426 0.7500001 0.4109546 0.7500001 0.4269425 0.7814008 0.4078619 0.75 0.3912616 0.7500001 0.4109546 0.7775588 0.3885474 0.7500001 0.3686208 0.75 0.3912616 0.2862725 0.4323545 0.3248357 0.4311458 0.2884156 0.4421937 0.2884156 0.4421937 0.3276736 0.4394084 0.2906464 0.4506405 0.3276736 0.4394084 0.2928792 0.4573704 0.2906464 0.4506405 0.329556 0.4462445 0.3016418 0.4839263 0.2928792 0.4573704 0.837024 0.4731932 0.7845197 0.4235426 0.8016418 0.4839263 0.817713 0.4134735 0.7814008 0.4078619 0.7845197 0.4235426 0.8115946 0.3987026 0.7775588 0.3885474 0.7814008 0.4078619 0.8040583 0.3805087 0.7731419 0.3663415 0.7775588 0.3885474 0.3532955 0.4045926 0.3251726 0.4310063 0.3211511 0.4217741 0.3251726 0.4310063 0.3631329 0.4206157 0.3290084 0.4388555 0.3631329 0.4206157 0.3325113 0.4450204 0.3290084 0.4388555 0.3325113 0.4450204 0.3788946 0.4519271 0.3462862 0.4693567 0.8462862 0.4693567 0.848304 0.3971224 0.817713 0.4134735 0.817713 0.4134735 0.8394216 0.3838289 0.8115946 0.3987026 0.8115946 0.3987026 0.8284808 0.3674547 0.8040583 0.3805087 0.8040583 0.3805087 0.8159024 0.3486295 0.7953942 0.3595913 0.3532955 0.4045926 0.3884606 0.3887186 0.3590407 0.4128628 0.3884606 0.3887186 0.3643342 0.419813 0.3590407 0.4128628 0.3942446 0.3952662 0.3689724 0.425176 0.3643342 0.419813 0.3985998 0.4008616 0.3872305 0.4463573 0.3689724 0.425176 0.915812 0.422901 0.848304 0.3971224 0.8872305 0.4463573 0.8751173 0.3751173 0.8394216 0.3838289 0.848304 0.3971224 0.863812 0.363812 0.8284808 0.3674547 0.8394216 0.3838289 0.8498871 0.3498872 0.8159024 0.3486295 0.8284808 0.3674547 0.4045926 0.3532955 0.3887186 0.3884606 0.3814702 0.3814702 0.3887186 0.3884606 0.4198129 0.3643342 0.3952662 0.3942446 0.3952662 0.3942446 0.425176 0.3689724 0.4008616 0.3985997 0.4008616 0.3985997 0.4463573 0.3872305 0.422901 0.415812 0.922901 0.415812 0.8971223 0.348304 0.8751173 0.3751173 0.8751173 0.3751173 0.883829 0.3394216 0.863812 0.363812 0.863812 0.363812 0.8674548 0.3284808 0.8498871 0.3498872 0.8498871 0.3498872 0.8486297 0.3159022 0.8338776 0.3338775 0.4045926 0.3532955 0.4310063 0.3251726 0.4130654 0.3587375 0.4310063 0.3251726 0.4206157 0.3631329 0.4130654 0.3587375 0.4206157 0.3631329 0.4450204 0.3325113 0.4269532 0.3663128 0.4450204 0.3325113 0.4519271 0.3788946 0.4269532 0.3663128 0.9693567 0.3462862 0.8971223 0.348304 0.9519272 0.3788946 0.9134735 0.3177129 0.883829 0.3394216 0.8971223 0.348304 0.8987028 0.3115946 0.8674548 0.3284808 0.883829 0.3394216 0.880509 0.3040586 0.8486297 0.3159022 0.8674548 0.3284808 0.4323545 0.2862725 0.4311457 0.3248357 0.4217741 0.3211511 0.4421937 0.2884157 0.4394084 0.3276736 0.4311457 0.3248357 0.4394084 0.3276736 0.4573704 0.2928793 0.4462445 0.329556 0.4573704 0.2928793 0.4731932 0.3370239 0.4462445 0.329556 0.9731932 0.3370239 0.9235425 0.2845197 0.9134735 0.3177129 0.9134735 0.3177129 0.9078619 0.2814007 0.8987028 0.3115946 0.8987028 0.3115946 0.8885473 0.2775588 0.880509 0.3040586 0.880509 0.3040586 0.8663415 0.2731418 0.8595914 0.2953943 0.435927 0.25 0.4422648 0.2880579 0.4323545 0.2862725 0.4459953 0.2501823 0.4509224 0.2892294 0.4422648 0.2880579 0.4509224 0.2892294 0.4617511 0.2515994 0.4579944 0.2897419 0.4579944 0.2897419 0.4895063 0.2550127 0.4858822 0.291809 0.9858822 0.291809 0.9269425 0.25 0.9235425 0.2845197 0.9235425 0.2845197 0.9109548 0.25 0.9078619 0.2814007 0.9078619 0.2814007 0.8912616 0.25 0.8885473 0.2775588 0.8885473 0.2775588 0.8686207 0.25 0.8663415 0.2731418 0.435927 0.25 0.4422648 0.211942 0.4459953 0.2498177 0.4459953 0.2498177 0.4509224 0.2107706 0.454715 0.2492776 0.4509224 0.2107706 0.4617511 0.2484006 0.454715 0.2492776 0.4579944 0.210258 0.4895063 0.2449873 0.4617511 0.2484006 0.9858822 0.208191 0.9269425 0.25 0.9895064 0.2449873 0.9235427 0.2154802 0.9109548 0.25 0.9269425 0.25 0.9078618 0.2185993 0.8912616 0.25 0.9109548 0.25 0.8885475 0.2224412 0.8686207 0.25 0.8912616 0.25 0.4323545 0.2137274 0.4311458 0.1751643 0.4421937 0.2115843 0.4421937 0.2115843 0.4394084 0.1723263 0.4506405 0.2093535 0.4394084 0.1723263 0.4573704 0.2071207 0.4506405 0.2093535 0.4462445 0.170444 0.4839263 0.1983582 0.4573704 0.2071207 0.9731932 0.162976 0.9235427 0.2154802 0.9839264 0.1983582 0.9134736 0.182287 0.9078618 0.2185993 0.9235427 0.2154802 0.8987028 0.1884053 0.8885475 0.2224412 0.9078618 0.2185993 0.8805087 0.1959415 0.8663414 0.2268582 0.8885475 0.2224412 0.4045926 0.1467044 0.4310063 0.1748273 0.4217741 0.1788488 0.4310063 0.1748273 0.4206157 0.1368671 0.4388555 0.1709915 0.4206157 0.1368671 0.4450204 0.1674887 0.4388555 0.1709915 0.4450204 0.1674887 0.4519271 0.1211053 0.4693567 0.1537137 0.9693567 0.1537137 0.8971221 0.1516959 0.9134736 0.182287 0.9134736 0.182287 0.8838288 0.1605784 0.8987028 0.1884053 0.8987028 0.1884053 0.8674548 0.1715191 0.8805087 0.1959415 0.8805087 0.1959415 0.8486295 0.1840978 0.8595913 0.2046058 0.4045926 0.1467045 0.3887186 0.1115393 0.4128628 0.1409592 0.3887186 0.1115393 0.419813 0.1356657 0.4128628 0.1409592 0.3952662 0.1057555 0.425176 0.1310275 0.419813 0.1356657 0.4008616 0.1014003 0.4463573 0.1127695 0.425176 0.1310275 0.922901 0.08418798 0.8971221 0.1516959 0.9463573 0.1127695 0.8751173 0.1248827 0.8838288 0.1605784 0.8971221 0.1516959 0.8638119 0.1361879 0.8674548 0.1715191 0.8838288 0.1605784 0.849887 0.1501129 0.8486295 0.1840978 0.8674548 0.1715191 0.3532955 0.09540736 0.3884606 0.1112815 0.3814702 0.1185297 0.3884606 0.1112815 0.3643342 0.08018702 0.3942446 0.1047338 0.3942446 0.1047338 0.3689724 0.07482397 0.3985997 0.09913843 0.3985997 0.09913843 0.3872305 0.05364269 0.415812 0.0770989 0.915812 0.07709896 0.848304 0.1028777 0.8751173 0.1248827 0.8751173 0.1248827 0.8394215 0.1161712 0.8638119 0.1361879 0.8638119 0.1361879 0.8284809 0.1325452 0.849887 0.1501129 0.849887 0.1501129 0.8159024 0.1513705 0.8338777 0.1661224 0.3532955 0.09540736 0.3251726 0.06899374 0.3587375 0.08693456 0.3251726 0.06899374 0.3631329 0.07938432 0.3587375 0.08693456 0.3631329 0.07938432 0.3325113 0.05497956 0.3663128 0.0730468 0.3325113 0.05497956 0.3788946 0.04807287 0.3663128 0.0730468 0.8462862 0.03064328 0.848304 0.1028777 0.8788946 0.04807287 0.8177131 0.08652639 0.8394215 0.1161712 0.848304 0.1028777 0.8115946 0.1012974 0.8284809 0.1325452 0.8394215 0.1161712 0.8040584 0.1194912 0.8159024 0.1513705 0.8284809 0.1325452 0.2862725 0.06764554 0.3248357 0.06885421 0.3211511 0.07822585 0.2884157 0.05780625 0.3276736 0.06059151 0.3248357 0.06885421 0.3276736 0.06059151 0.2928793 0.04262965 0.329556 0.0537554 0.2928793 0.04262965 0.3370239 0.02680671 0.329556 0.0537554 0.8370239 0.02680671 0.7845197 0.07645738 0.8177131 0.08652639 0.8177131 0.08652639 0.7814007 0.09213817 0.8115946 0.1012974 0.8115946 0.1012974 0.7775588 0.1114526 0.8040584 0.1194912 0.8040584 0.1194912 0.7731418 0.1336585 0.7953942 0.1404086 0.25 0.06407302 0.2880579 0.05773514 0.2862725 0.06764554 0.2501823 0.05400472 0.2892294 0.04907757 0.2880579 0.05773514 0.2892294 0.04907757 0.2515994 0.03824889 0.2897419 0.04200559 0.2897419 0.04200559 0.2550127 0.01049369 0.291809 0.01411783 0.7918089 0.01411783 0.75 0.07305747 0.7845197 0.07645738 0.7845197 0.07645738 0.7500002 0.08904546 0.7814007 0.09213817 0.7814007 0.09213817 0.7500001 0.1087383 0.7775588 0.1114526 0.7775588 0.1114526 0.75 0.1313792 0.7731418 0.1336585 0.25 0.06407302 0.211942 0.05773514 0.2498177 0.05400472 0.2498177 0.05400472 0.2107706 0.04907757 0.2492776 0.04528492 0.2107706 0.04907757 0.2484006 0.03824889 0.2492776 0.04528492 0.210258 0.04200559 0.2449873 0.01049369 0.2484006 0.03824889 0.708191 0.01411783 0.75 0.07305747 0.7449873 0.01049369 0.7154803 0.07645738 0.7500002 0.08904546 0.75 0.07305747 0.7185994 0.09213817 0.7500001 0.1087383 0.7500002 0.08904546 0.7224413 0.1114526 0.75 0.1313792 0.7500001 0.1087383 0.2137274 0.06764554 0.1751643 0.06885421 0.2115843 0.05780625 0.2115843 0.05780625 0.1723263 0.06059151 0.2093535 0.04935944 0.1723263 0.06059151 0.2071207 0.04262965 0.2093535 0.04935944 0.170444 0.0537554 0.1983582 0.0160737 0.2071207 0.04262965 0.662976 0.02680671 0.7154803 0.07645738 0.6983582 0.0160737 0.682287 0.08652645 0.7185994 0.09213817 0.7154803 0.07645738 0.6884056 0.1012974 0.7224413 0.1114526 0.7185994 0.09213817 0.6959416 0.1194912 0.7268583 0.1336585 0.7224413 0.1114526 0.1467044 0.09540736 0.1748273 0.06899374 0.1788488 0.07822585 0.1748273 0.06899374 0.1368671 0.07938432 0.1709915 0.06114441 0.1368671 0.07938432 0.1674887 0.05497956 0.1709915 0.06114441 0.1674887 0.05497956 0.1211053 0.04807287 0.1537137 0.03064328 0.6537137 0.03064328 0.651696 0.1028777 0.682287 0.08652645 0.682287 0.08652645 0.6605784 0.1161712 0.6884056 0.1012974 0.6884056 0.1012974 0.6715193 0.1325452 0.6959416 0.1194912 0.6959416 0.1194912 0.6840978 0.1513704 0.7046059 0.1404087 0.1467045 0.09540736 0.1115393 0.1112815 0.1409592 0.08713716 0.1115393 0.1112815 0.1356657 0.08018702 0.1409592 0.08713716 0.1057555 0.1047338 0.1310275 0.07482397 0.1356657 0.08018702 0.1014003 0.09913843 0.1127695 0.05364269 0.1310275 0.07482397 0.584188 0.07709896 0.651696 0.1028777 0.6127695 0.05364269 0.6248827 0.1248828 0.6605784 0.1161712 0.651696 0.1028777 0.636188 0.136188 0.6715193 0.1325452 0.6605784 0.1161712 0.6501128 0.1501129 0.6840978 0.1513704 0.6715193 0.1325452 0.09540736 0.1467045 0.1112815 0.1115393 0.1185297 0.1185297 0.1112815 0.1115393 0.08018702 0.1356657 0.1047338 0.1057555 0.1047338 0.1057555 0.07482397 0.1310275 0.09913843 0.1014003 0.09913843 0.1014003 0.05364269 0.1127695 0.0770989 0.08418798 0.577099 0.08418798 0.6028777 0.151696 0.6248827 0.1248828 0.6248827 0.1248828 0.6161711 0.1605784 0.636188 0.136188 0.636188 0.136188 0.6325452 0.1715192 0.6501128 0.1501129 0.6501128 0.1501129 0.6513706 0.1840978 0.6661224 0.1661224 0.09540736 0.1467045 0.06899374 0.1748273 0.08693456 0.1412624 0.06899374 0.1748273 0.07938432 0.1368671 0.08693456 0.1412624 0.07938432 0.1368671 0.05497956 0.1674887 0.0730468 0.1336872 0.05497956 0.1674887 0.04807287 0.1211053 0.0730468 0.1336872 0.5306434 0.1537138 0.6028777 0.151696 0.5480729 0.1211053 0.5865265 0.182287 0.6161711 0.1605784 0.6028777 0.151696 0.6012974 0.1884053 0.6325452 0.1715192 0.6161711 0.1605784 0.6194912 0.1959415 0.6513706 0.1840978 0.6325452 0.1715192 0.06764554 0.2137274 0.06885421 0.1751643 0.07822585 0.1788488 0.05780625 0.2115843 0.06059151 0.1723263 0.06885421 0.1751643 0.06059151 0.1723263 0.04262965 0.2071207 0.0537554 0.170444 0.04262965 0.2071207 0.02680671 0.162976 0.0537554 0.170444 0.5268068 0.162976 0.5764574 0.2154802 0.5865265 0.182287 0.5865265 0.182287 0.5921381 0.2185993 0.6012974 0.1884053 0.6012974 0.1884053 0.6114526 0.2224412 0.6194912 0.1959415 0.6194912 0.1959415 0.6336585 0.2268582 0.6404088 0.2046058 0.06407302 0.25 0.05773514 0.211942 0.06764554 0.2137274 0.05400472 0.2498176 0.04907757 0.2107706 0.05773514 0.211942 0.04907757 0.2107706 0.03824889 0.2484006 0.04200559 0.2102581 0.04200559 0.2102581 0.01049369 0.2449873 0.01411783 0.208191 0.5141178 0.208191 0.5730574 0.25 0.5764574 0.2154802 0.5764574 0.2154802 0.5890455 0.25 0.5921381 0.2185993 0.5921381 0.2185993 0.6087383 0.25 0.6114526 0.2224412 0.6114526 0.2224412 0.6313792 0.25 0.6336585 0.2268582 0.06407302 0.25 0.05773514 0.2880579 0.05400472 0.2501824 0.05400472 0.2501824 0.04907757 0.2892294 0.04528492 0.2507224 0.04907757 0.2892294 0.03824889 0.2515994 0.04528492 0.2507224 0.04200559 0.2897419 0.01049369 0.2550127 0.03824889 0.2515994 0.5141178 0.291809 0.5730574 0.25 0.5104938 0.2550128 0.5764574 0.2845197 0.5890455 0.25 0.5730574 0.25 0.5921383 0.2814007 0.6087383 0.25 0.5890455 0.25 0.6114528 0.2775588 0.6313792 0.25 0.6087383 0.25 0.06764554 0.2862725 0.06885421 0.3248357 0.05780625 0.2884156 0.05780625 0.2884156 0.06059151 0.3276736 0.04935944 0.2906464 0.06059151 0.3276736 0.04262965 0.2928792 0.04935944 0.2906464 0.0537554 0.329556 0.0160737 0.3016418 0.04262965 0.2928792 0.5268068 0.3370239 0.5764574 0.2845197 0.5160737 0.3016418 0.5865265 0.317713 0.5921383 0.2814007 0.5764574 0.2845197 0.6012974 0.3115946 0.6114528 0.2775588 0.5921383 0.2814007 0.6194912 0.3040585 0.6336584 0.2731418 0.6114528 0.2775588 0.09540736 0.3532955 0.06899374 0.3251726 0.07822585 0.3211511 0.06899374 0.3251726 0.07938432 0.3631329 0.06114441 0.3290084 0.07938432 0.3631329 0.05497956 0.3325113 0.06114441 0.3290084 0.05497956 0.3325113 0.04807287 0.3788946 0.03064328 0.3462862 0.5306434 0.3462862 0.6028777 0.348304 0.5865265 0.317713 0.5865265 0.317713 0.6161712 0.3394215 0.6012974 0.3115946 0.6012974 0.3115946 0.6325452 0.3284808 0.6194912 0.3040585 0.6194912 0.3040585 0.6513705 0.3159022 0.6404086 0.2953942 0.09540736 0.3532955 0.1112815 0.3884606 0.08713716 0.3590407 0.1112815 0.3884606 0.08018702 0.3643342 0.08713716 0.3590407 0.1047338 0.3942446 0.07482397 0.3689724 0.08018702 0.3643342 0.09913843 0.3985998 0.05364269 0.3872305 0.07482397 0.3689724 0.577099 0.415812 0.6028777 0.348304 0.5536428 0.3872305 0.6248828 0.3751173 0.6161712 0.3394215 0.6028777 0.348304 0.636188 0.363812 0.6325452 0.3284808 0.6161712 0.3394215 0.6501128 0.3498871 0.6513705 0.3159022 0.6325452 0.3284808 0.1467045 0.4045926 0.1115393 0.3887186 0.1185297 0.3814702 0.1115393 0.3887186 0.1356657 0.4198129 0.1057555 0.3952662 0.1057555 0.3952662 0.1310275 0.425176 0.1014003 0.4008616 0.1014003 0.4008616 0.1127695 0.4463573 0.08418798 0.422901 0.584188 0.4229011 0.6516961 0.3971223 0.6248828 0.3751173 0.6248828 0.3751173 0.6605784 0.3838288 0.636188 0.363812 0.636188 0.363812 0.671519 0.3674547 0.6501128 0.3498871 0.6501128 0.3498871 0.6840978 0.3486295 0.6661224 0.3338775 0.1467045 0.4045926 0.1748273 0.4310063 0.1412624 0.4130654 0.1748273 0.4310063 0.1368671 0.4206157 0.1412624 0.4130654 0.1368671 0.4206157 0.1674887 0.4450204 0.1336872 0.4269532 0.1674887 0.4450204 0.1211053 0.4519271 0.1336872 0.4269532 0.6537138 0.4693567 0.6516961 0.3971223 0.6211054 0.4519271 0.6822872 0.4134736 0.6605784 0.3838288 0.6516961 0.3971223 0.6884054 0.3987026 0.671519 0.3674547 0.6605784 0.3838288 0.6959415 0.3805087 0.6840978 0.3486295 0.671519 0.3674547 0.2137274 0.4323545 0.1751643 0.4311457 0.1788488 0.4217741 0.2115843 0.4421937 0.1723263 0.4394084 0.1751643 0.4311457 0.1723263 0.4394084 0.2071207 0.4573704 0.170444 0.4462445 0.2071207 0.4573704 0.162976 0.4731932 0.170444 0.4462445 0.6629762 0.4731932 0.7154802 0.4235426 0.6822872 0.4134736 0.6822872 0.4134736 0.7185995 0.4078619 0.6884054 0.3987026 0.6884054 0.3987026 0.7224411 0.3885474 0.6959415 0.3805087 0.6959415 0.3805087 0.7268583 0.3663415 0.7046059 0.3595914 0.25 0.435927 0.211942 0.4422648 0.2137274 0.4323545 0.2498176 0.4459953 0.2107706 0.4509224 0.211942 0.4422648 0.2107706 0.4509224 0.2484006 0.4617511 0.2102581 0.4579944 0.2102581 0.4579944 0.2449873 0.4895063 0.208191 0.4858822 0.708191 0.4858822 0.7500001 0.4269425 0.7154802 0.4235426 0.7154802 0.4235426 0.7500001 0.4109546 0.7185995 0.4078619 0.7185995 0.4078619 0.75 0.3912616 0.7224411 0.3885474 0.7224411 0.3885474 0.7500001 0.3686208 0.7268583 0.3663415 0.7731418 0.1336585 0.6336585 0.2268582 0.7268583 0.3663415 0.25 0.435927 0.2862725 0.4323545 0.2880579 0.4422648 0.2501824 0.4459953 0.2880579 0.4422648 0.2892294 0.4509224 0.2892294 0.4509224 0.2897419 0.4579944 0.2515994 0.4617511 0.2897419 0.4579944 0.291809 0.4858822 0.2550127 0.4895063 0.791809 0.4858822 0.7845197 0.4235426 0.7500001 0.4269425 0.7845197 0.4235426 0.7814008 0.4078619 0.7500001 0.4109546 0.7814008 0.4078619 0.7775588 0.3885474 0.75 0.3912616 0.7775588 0.3885474 0.7731419 0.3663415 0.7500001 0.3686208 0.2862725 0.4323545 0.3211512 0.4217741 0.3248357 0.4311458 0.2884156 0.4421937 0.3248357 0.4311458 0.3276736 0.4394084 0.3276736 0.4394084 0.329556 0.4462445 0.2928792 0.4573704 0.329556 0.4462445 0.3370239 0.4731932 0.3016418 0.4839263 0.837024 0.4731932 0.817713 0.4134735 0.7845197 0.4235426 0.817713 0.4134735 0.8115946 0.3987026 0.7814008 0.4078619 0.8115946 0.3987026 0.8040583 0.3805087 0.7775588 0.3885474 0.8040583 0.3805087 0.7953942 0.3595913 0.7731419 0.3663415 0.3532955 0.4045926 0.3587375 0.4130655 0.3251726 0.4310063 0.3251726 0.4310063 0.3587375 0.4130655 0.3631329 0.4206157 0.3631329 0.4206157 0.3663128 0.4269532 0.3325113 0.4450204 0.3325113 0.4450204 0.3663128 0.4269532 0.3788946 0.4519271 0.8462862 0.4693567 0.8788946 0.4519271 0.848304 0.3971224 0.817713 0.4134735 0.848304 0.3971224 0.8394216 0.3838289 0.8115946 0.3987026 0.8394216 0.3838289 0.8284808 0.3674547 0.8040583 0.3805087 0.8284808 0.3674547 0.8159024 0.3486295 0.3532955 0.4045926 0.3814702 0.3814702 0.3884606 0.3887186 0.3884606 0.3887186 0.3942446 0.3952662 0.3643342 0.419813 0.3942446 0.3952662 0.3985998 0.4008616 0.3689724 0.425176 0.3985998 0.4008616 0.415812 0.422901 0.3872305 0.4463573 0.915812 0.422901 0.8751173 0.3751173 0.848304 0.3971224 0.8751173 0.3751173 0.863812 0.363812 0.8394216 0.3838289 0.863812 0.363812 0.8498871 0.3498872 0.8284808 0.3674547 0.8498871 0.3498872 0.8338776 0.3338775 0.8159024 0.3486295 0.4045926 0.3532955 0.4128628 0.3590407 0.3887186 0.3884606 0.3887186 0.3884606 0.4128628 0.3590407 0.4198129 0.3643342 0.3952662 0.3942446 0.4198129 0.3643342 0.425176 0.3689724 0.4008616 0.3985997 0.425176 0.3689724 0.4463573 0.3872305 0.922901 0.415812 0.9463573 0.3872305 0.8971223 0.348304 0.8751173 0.3751173 0.8971223 0.348304 0.883829 0.3394216 0.863812 0.363812 0.883829 0.3394216 0.8674548 0.3284808 0.8498871 0.3498872 0.8674548 0.3284808 0.8486297 0.3159022 0.4045926 0.3532955 0.4217741 0.3211511 0.4310063 0.3251726 0.4310063 0.3251726 0.4388555 0.3290084 0.4206157 0.3631329 0.4206157 0.3631329 0.4388555 0.3290084 0.4450204 0.3325113 0.4450204 0.3325113 0.4693567 0.3462862 0.4519271 0.3788946 0.9693567 0.3462862 0.9134735 0.3177129 0.8971223 0.348304 0.9134735 0.3177129 0.8987028 0.3115946 0.883829 0.3394216 0.8987028 0.3115946 0.880509 0.3040586 0.8674548 0.3284808 0.880509 0.3040586 0.8595914 0.2953943 0.8486297 0.3159022 0.4323545 0.2862725 0.4421937 0.2884157 0.4311457 0.3248357 0.4421937 0.2884157 0.4506405 0.2906464 0.4394084 0.3276736 0.4394084 0.3276736 0.4506405 0.2906464 0.4573704 0.2928793 0.4573704 0.2928793 0.4839263 0.3016418 0.4731932 0.3370239 0.9731932 0.3370239 0.9839263 0.3016418 0.9235425 0.2845197 0.9134735 0.3177129 0.9235425 0.2845197 0.9078619 0.2814007 0.8987028 0.3115946 0.9078619 0.2814007 0.8885473 0.2775588 0.880509 0.3040586 0.8885473 0.2775588 0.8663415 0.2731418 0.435927 0.25 0.4459953 0.2501823 0.4422648 0.2880579 0.4459953 0.2501823 0.454715 0.2507224 0.4509224 0.2892294 0.4509224 0.2892294 0.454715 0.2507224 0.4617511 0.2515994 0.4579944 0.2897419 0.4617511 0.2515994 0.4895063 0.2550127 0.9858822 0.291809 0.9895063 0.2550127 0.9269425 0.25 0.9235425 0.2845197 0.9269425 0.25 0.9109548 0.25 0.9078619 0.2814007 0.9109548 0.25 0.8912616 0.25 0.8885473 0.2775588 0.8912616 0.25 0.8686207 0.25 0.435927 0.25 0.4323545 0.2137274 0.4422648 0.211942 0.4459953 0.2498177 0.4422648 0.211942 0.4509224 0.2107706 0.4509224 0.2107706 0.4579944 0.210258 0.4617511 0.2484006 0.4579944 0.210258 0.4858822 0.208191 0.4895063 0.2449873 0.9858822 0.208191 0.9235427 0.2154802 0.9269425 0.25 0.9235427 0.2154802 0.9078618 0.2185993 0.9109548 0.25 0.9078618 0.2185993 0.8885475 0.2224412 0.8912616 0.25 0.8885475 0.2224412 0.8663414 0.2268582 0.8686207 0.25 0.4323545 0.2137274 0.4217741 0.1788488 0.4311458 0.1751643 0.4421937 0.2115843 0.4311458 0.1751643 0.4394084 0.1723263 0.4394084 0.1723263 0.4462445 0.170444 0.4573704 0.2071207 0.4462445 0.170444 0.4731932 0.162976 0.4839263 0.1983582 0.9731932 0.162976 0.9134736 0.182287 0.9235427 0.2154802 0.9134736 0.182287 0.8987028 0.1884053 0.9078618 0.2185993 0.8987028 0.1884053 0.8805087 0.1959415 0.8885475 0.2224412 0.8805087 0.1959415 0.8595913 0.2046058 0.8663414 0.2268582 0.4045926 0.1467044 0.4130655 0.1412624 0.4310063 0.1748273 0.4310063 0.1748273 0.4130655 0.1412624 0.4206157 0.1368671 0.4206157 0.1368671 0.4269532 0.1336872 0.4450204 0.1674887 0.4450204 0.1674887 0.4269532 0.1336872 0.4519271 0.1211053 0.9693567 0.1537137 0.9519271 0.1211053 0.8971221 0.1516959 0.9134736 0.182287 0.8971221 0.1516959 0.8838288 0.1605784 0.8987028 0.1884053 0.8838288 0.1605784 0.8674548 0.1715191 0.8805087 0.1959415 0.8674548 0.1715191 0.8486295 0.1840978 0.4045926 0.1467045 0.3814702 0.1185297 0.3887186 0.1115393 0.3887186 0.1115393 0.3952662 0.1057555 0.419813 0.1356657 0.3952662 0.1057555 0.4008616 0.1014003 0.425176 0.1310275 0.4008616 0.1014003 0.422901 0.08418798 0.4463573 0.1127695 0.922901 0.08418798 0.8751173 0.1248827 0.8971221 0.1516959 0.8751173 0.1248827 0.8638119 0.1361879 0.8838288 0.1605784 0.8638119 0.1361879 0.849887 0.1501129 0.8674548 0.1715191 0.849887 0.1501129 0.8338777 0.1661224 0.8486295 0.1840978 0.3532955 0.09540736 0.3590407 0.08713716 0.3884606 0.1112815 0.3884606 0.1112815 0.3590407 0.08713716 0.3643342 0.08018702 0.3942446 0.1047338 0.3643342 0.08018702 0.3689724 0.07482397 0.3985997 0.09913843 0.3689724 0.07482397 0.3872305 0.05364269 0.915812 0.07709896 0.8872305 0.05364269 0.848304 0.1028777 0.8751173 0.1248827 0.848304 0.1028777 0.8394215 0.1161712 0.8638119 0.1361879 0.8394215 0.1161712 0.8284809 0.1325452 0.849887 0.1501129 0.8284809 0.1325452 0.8159024 0.1513705 0.3532955 0.09540736 0.3211511 0.07822585 0.3251726 0.06899374 0.3251726 0.06899374 0.3290084 0.06114441 0.3631329 0.07938432 0.3631329 0.07938432 0.3290084 0.06114441 0.3325113 0.05497956 0.3325113 0.05497956 0.3462862 0.03064328 0.3788946 0.04807287 0.8462862 0.03064328 0.8177131 0.08652639 0.848304 0.1028777 0.8177131 0.08652639 0.8115946 0.1012974 0.8394215 0.1161712 0.8115946 0.1012974 0.8040584 0.1194912 0.8284809 0.1325452 0.8040584 0.1194912 0.7953942 0.1404086 0.8159024 0.1513705 0.2862725 0.06764554 0.2884157 0.05780625 0.3248357 0.06885421 0.2884157 0.05780625 0.2906464 0.04935944 0.3276736 0.06059151 0.3276736 0.06059151 0.2906464 0.04935944 0.2928793 0.04262965 0.2928793 0.04262965 0.3016418 0.0160737 0.3370239 0.02680671 0.8370239 0.02680671 0.8016417 0.0160737 0.7845197 0.07645738 0.8177131 0.08652639 0.7845197 0.07645738 0.7814007 0.09213817 0.8115946 0.1012974 0.7814007 0.09213817 0.7775588 0.1114526 0.8040584 0.1194912 0.7775588 0.1114526 0.7731418 0.1336585 0.25 0.06407302 0.2501823 0.05400472 0.2880579 0.05773514 0.2501823 0.05400472 0.2507224 0.04528492 0.2892294 0.04907757 0.2892294 0.04907757 0.2507224 0.04528492 0.2515994 0.03824889 0.2897419 0.04200559 0.2515994 0.03824889 0.2550127 0.01049369 0.7918089 0.01411783 0.7550127 0.01049369 0.75 0.07305747 0.7845197 0.07645738 0.75 0.07305747 0.7500002 0.08904546 0.7814007 0.09213817 0.7500002 0.08904546 0.7500001 0.1087383 0.7775588 0.1114526 0.7500001 0.1087383 0.75 0.1313792 0.25 0.06407302 0.2137274 0.06764554 0.211942 0.05773514 0.2498177 0.05400472 0.211942 0.05773514 0.2107706 0.04907757 0.2107706 0.04907757 0.210258 0.04200559 0.2484006 0.03824889 0.210258 0.04200559 0.208191 0.01411783 0.2449873 0.01049369 0.708191 0.01411783 0.7154803 0.07645738 0.75 0.07305747 0.7154803 0.07645738 0.7185994 0.09213817 0.7500002 0.08904546 0.7185994 0.09213817 0.7224413 0.1114526 0.7500001 0.1087383 0.7224413 0.1114526 0.7268583 0.1336585 0.75 0.1313792 0.2137274 0.06764554 0.1788488 0.07822585 0.1751643 0.06885421 0.2115843 0.05780625 0.1751643 0.06885421 0.1723263 0.06059151 0.1723263 0.06059151 0.170444 0.0537554 0.2071207 0.04262965 0.170444 0.0537554 0.162976 0.02680671 0.1983582 0.0160737 0.662976 0.02680671 0.682287 0.08652645 0.7154803 0.07645738 0.682287 0.08652645 0.6884056 0.1012974 0.7185994 0.09213817 0.6884056 0.1012974 0.6959416 0.1194912 0.7224413 0.1114526 0.6959416 0.1194912 0.7046059 0.1404087 0.7268583 0.1336585 0.1467044 0.09540736 0.1412624 0.08693456 0.1748273 0.06899374 0.1748273 0.06899374 0.1412624 0.08693456 0.1368671 0.07938432 0.1368671 0.07938432 0.1336872 0.0730468 0.1674887 0.05497956 0.1674887 0.05497956 0.1336872 0.0730468 0.1211053 0.04807287 0.6537137 0.03064328 0.6211054 0.04807287 0.651696 0.1028777 0.682287 0.08652645 0.651696 0.1028777 0.6605784 0.1161712 0.6884056 0.1012974 0.6605784 0.1161712 0.6715193 0.1325452 0.6959416 0.1194912 0.6715193 0.1325452 0.6840978 0.1513704 0.1467045 0.09540736 0.1185297 0.1185297 0.1115393 0.1112815 0.1115393 0.1112815 0.1057555 0.1047338 0.1356657 0.08018702 0.1057555 0.1047338 0.1014003 0.09913843 0.1310275 0.07482397 0.1014003 0.09913843 0.08418798 0.07709896 0.1127695 0.05364269 0.584188 0.07709896 0.6248827 0.1248828 0.651696 0.1028777 0.6248827 0.1248828 0.636188 0.136188 0.6605784 0.1161712 0.636188 0.136188 0.6501128 0.1501129 0.6715193 0.1325452 0.6501128 0.1501129 0.6661224 0.1661224 0.6840978 0.1513704 0.09540736 0.1467045 0.08713716 0.1409592 0.1112815 0.1115393 0.1112815 0.1115393 0.08713716 0.1409592 0.08018702 0.1356657 0.1047338 0.1057555 0.08018702 0.1356657 0.07482397 0.1310275 0.09913843 0.1014003 0.07482397 0.1310275 0.05364269 0.1127695 0.577099 0.08418798 0.5536428 0.1127695 0.6028777 0.151696 0.6248827 0.1248828 0.6028777 0.151696 0.6161711 0.1605784 0.636188 0.136188 0.6161711 0.1605784 0.6325452 0.1715192 0.6501128 0.1501129 0.6325452 0.1715192 0.6513706 0.1840978 0.09540736 0.1467045 0.07822585 0.1788488 0.06899374 0.1748273 0.06899374 0.1748273 0.06114441 0.1709915 0.07938432 0.1368671 0.07938432 0.1368671 0.06114441 0.1709915 0.05497956 0.1674887 0.05497956 0.1674887 0.03064328 0.1537137 0.04807287 0.1211053 0.5306434 0.1537138 0.5865265 0.182287 0.6028777 0.151696 0.5865265 0.182287 0.6012974 0.1884053 0.6161711 0.1605784 0.6012974 0.1884053 0.6194912 0.1959415 0.6325452 0.1715192 0.6194912 0.1959415 0.6404088 0.2046058 0.6513706 0.1840978 0.06764554 0.2137274 0.05780625 0.2115843 0.06885421 0.1751643 0.05780625 0.2115843 0.04935944 0.2093535 0.06059151 0.1723263 0.06059151 0.1723263 0.04935944 0.2093535 0.04262965 0.2071207 0.04262965 0.2071207 0.0160737 0.1983582 0.02680671 0.162976 0.5268068 0.162976 0.5160737 0.1983582 0.5764574 0.2154802 0.5865265 0.182287 0.5764574 0.2154802 0.5921381 0.2185993 0.6012974 0.1884053 0.5921381 0.2185993 0.6114526 0.2224412 0.6194912 0.1959415 0.6114526 0.2224412 0.6336585 0.2268582 0.06407302 0.25 0.05400472 0.2498176 0.05773514 0.211942 0.05400472 0.2498176 0.04528492 0.2492775 0.04907757 0.2107706 0.04907757 0.2107706 0.04528492 0.2492775 0.03824889 0.2484006 0.04200559 0.2102581 0.03824889 0.2484006 0.01049369 0.2449873 0.5141178 0.208191 0.5104937 0.2449873 0.5730574 0.25 0.5764574 0.2154802 0.5730574 0.25 0.5890455 0.25 0.5921381 0.2185993 0.5890455 0.25 0.6087383 0.25 0.6114526 0.2224412 0.6087383 0.25 0.6313792 0.25 0.06407302 0.25 0.06764554 0.2862725 0.05773514 0.2880579 0.05400472 0.2501824 0.05773514 0.2880579 0.04907757 0.2892294 0.04907757 0.2892294 0.04200559 0.2897419 0.03824889 0.2515994 0.04200559 0.2897419 0.01411783 0.291809 0.01049369 0.2550127 0.5141178 0.291809 0.5764574 0.2845197 0.5730574 0.25 0.5764574 0.2845197 0.5921383 0.2814007 0.5890455 0.25 0.5921383 0.2814007 0.6114528 0.2775588 0.6087383 0.25 0.6114528 0.2775588 0.6336584 0.2731418 0.6313792 0.25 0.06764554 0.2862725 0.07822585 0.3211512 0.06885421 0.3248357 0.05780625 0.2884156 0.06885421 0.3248357 0.06059151 0.3276736 0.06059151 0.3276736 0.0537554 0.329556 0.04262965 0.2928792 0.0537554 0.329556 0.02680671 0.3370239 0.0160737 0.3016418 0.5268068 0.3370239 0.5865265 0.317713 0.5764574 0.2845197 0.5865265 0.317713 0.6012974 0.3115946 0.5921383 0.2814007 0.6012974 0.3115946 0.6194912 0.3040585 0.6114528 0.2775588 0.6194912 0.3040585 0.6404086 0.2953942 0.6336584 0.2731418 0.09540736 0.3532955 0.08693456 0.3587375 0.06899374 0.3251726 0.06899374 0.3251726 0.08693456 0.3587375 0.07938432 0.3631329 0.07938432 0.3631329 0.0730468 0.3663128 0.05497956 0.3325113 0.05497956 0.3325113 0.0730468 0.3663128 0.04807287 0.3788946 0.5306434 0.3462862 0.5480729 0.3788946 0.6028777 0.348304 0.5865265 0.317713 0.6028777 0.348304 0.6161712 0.3394215 0.6012974 0.3115946 0.6161712 0.3394215 0.6325452 0.3284808 0.6194912 0.3040585 0.6325452 0.3284808 0.6513705 0.3159022 0.09540736 0.3532955 0.1185297 0.3814702 0.1112815 0.3884606 0.1112815 0.3884606 0.1047338 0.3942446 0.08018702 0.3643342 0.1047338 0.3942446 0.09913843 0.3985998 0.07482397 0.3689724 0.09913843 0.3985998 0.07709896 0.415812 0.05364269 0.3872305 0.577099 0.415812 0.6248828 0.3751173 0.6028777 0.348304 0.6248828 0.3751173 0.636188 0.363812 0.6161712 0.3394215 0.636188 0.363812 0.6501128 0.3498871 0.6325452 0.3284808 0.6501128 0.3498871 0.6661224 0.3338775 0.6513705 0.3159022 0.1467045 0.4045926 0.1409592 0.4128628 0.1115393 0.3887186 0.1115393 0.3887186 0.1409592 0.4128628 0.1356657 0.4198129 0.1057555 0.3952662 0.1356657 0.4198129 0.1310275 0.425176 0.1014003 0.4008616 0.1310275 0.425176 0.1127695 0.4463573 0.584188 0.4229011 0.6127696 0.4463573 0.6516961 0.3971223 0.6248828 0.3751173 0.6516961 0.3971223 0.6605784 0.3838288 0.636188 0.363812 0.6605784 0.3838288 0.671519 0.3674547 0.6501128 0.3498871 0.671519 0.3674547 0.6840978 0.3486295 0.1467045 0.4045926 0.1788488 0.4217741 0.1748273 0.4310063 0.1748273 0.4310063 0.1709915 0.4388555 0.1368671 0.4206157 0.1368671 0.4206157 0.1709915 0.4388555 0.1674887 0.4450204 0.1674887 0.4450204 0.1537137 0.4693567 0.1211053 0.4519271 0.6537138 0.4693567 0.6822872 0.4134736 0.6516961 0.3971223 0.6822872 0.4134736 0.6884054 0.3987026 0.6605784 0.3838288 0.6884054 0.3987026 0.6959415 0.3805087 0.671519 0.3674547 0.6959415 0.3805087 0.7046059 0.3595914 0.6840978 0.3486295 0.2137274 0.4323545 0.2115843 0.4421937 0.1751643 0.4311457 0.2115843 0.4421937 0.2093535 0.4506405 0.1723263 0.4394084 0.1723263 0.4394084 0.2093535 0.4506405 0.2071207 0.4573704 0.2071207 0.4573704 0.1983582 0.4839263 0.162976 0.4731932 0.6629762 0.4731932 0.6983582 0.4839263 0.7154802 0.4235426 0.6822872 0.4134736 0.7154802 0.4235426 0.7185995 0.4078619 0.6884054 0.3987026 0.7185995 0.4078619 0.7224411 0.3885474 0.6959415 0.3805087 0.7224411 0.3885474 0.7268583 0.3663415 0.25 0.435927 0.2498176 0.4459953 0.211942 0.4422648 0.2498176 0.4459953 0.2492775 0.454715 0.2107706 0.4509224 0.2107706 0.4509224 0.2492775 0.454715 0.2484006 0.4617511 0.2102581 0.4579944 0.2484006 0.4617511 0.2449873 0.4895063 0.708191 0.4858822 0.7449873 0.4895063 0.7500001 0.4269425 0.7154802 0.4235426 0.7500001 0.4269425 0.7500001 0.4109546 0.7185995 0.4078619 0.7500001 0.4109546 0.75 0.3912616 0.7224411 0.3885474 0.75 0.3912616 0.7500001 0.3686208 0.7268583 0.3663415 0.7500001 0.3686208 0.7731419 0.3663415 0.7731419 0.3663415 0.7953942 0.3595913 0.8159024 0.3486295 0.8159024 0.3486295 0.8338776 0.3338775 0.8486297 0.3159022 0.8486297 0.3159022 0.8595914 0.2953943 0.8663415 0.2731418 0.8663415 0.2731418 0.8686207 0.25 0.8663414 0.2268582 0.8663414 0.2268582 0.8595913 0.2046058 0.8486295 0.1840978 0.8486295 0.1840978 0.8338777 0.1661224 0.8159024 0.1513705 0.8159024 0.1513705 0.7953942 0.1404086 0.7731418 0.1336585 0.7731418 0.1336585 0.75 0.1313792 0.7268583 0.1336585 0.7268583 0.1336585 0.7046059 0.1404087 0.6840978 0.1513704 0.6840978 0.1513704 0.6661224 0.1661224 0.6513706 0.1840978 0.6513706 0.1840978 0.6404088 0.2046058 0.6336585 0.2268582 0.6336585 0.2268582 0.6313792 0.25 0.6336584 0.2731418 0.6336584 0.2731418 0.6404086 0.2953942 0.6513705 0.3159022 0.6513705 0.3159022 0.6661224 0.3338775 0.6840978 0.3486295 0.6840978 0.3486295 0.7046059 0.3595914 0.7268583 0.3663415 0.7268583 0.3663415 0.7731419 0.3663415 0.8159024 0.3486295 0.8159024 0.3486295 0.8486297 0.3159022 0.7268583 0.3663415 0.8486297 0.3159022 0.8663415 0.2731418 0.7268583 0.3663415 0.8663415 0.2731418 0.8663414 0.2268582 0.8486295 0.1840978 0.8486295 0.1840978 0.8159024 0.1513705 0.8663415 0.2731418 0.8159024 0.1513705 0.7731418 0.1336585 0.8663415 0.2731418 0.7731418 0.1336585 0.7268583 0.1336585 0.6840978 0.1513704 0.6840978 0.1513704 0.6513706 0.1840978 0.7731418 0.1336585 0.6513706 0.1840978 0.6336585 0.2268582 0.7731418 0.1336585 0.6336585 0.2268582 0.6336584 0.2731418 0.6513705 0.3159022 0.6513705 0.3159022 0.6840978 0.3486295 0.6336585 0.2268582 0.6840978 0.3486295 0.7268583 0.3663415 0.6336585 0.2268582 0.7268583 0.3663415 0.8663415 0.2731418 0.7731418 0.1336585</float_array>
          <technique_common>
            <accessor source="#Cone-mesh-map-0-array" count="1722" stride="2">
              <param name="S" type="float"/>
              <param name="T" type="float"/>
            </accessor>
          </technique_common>
        </source>
        <vertices id="Cone-mesh-vertices">
          <input semantic="POSITION" source="#Cone-mesh-positions"/>
        </vertices>
        <triangles material="Material_002-material" count="574">
          <input semantic="VERTEX" source="#Cone-mesh-vertices" offset="0"/>
          <input semantic="NORMAL" source="#Cone-mesh-normals" offset="1"/>
          <input semantic="TEXCOORD" source="#Cone-mesh-map-0" offset="2" set="0"/>
          <p>281 0 0 0 0 1 2 0 2 20 1 3 0 1 4 29 1 5 29 2 6 0 2 7 38 2 8 38 3 9 0 3 10 47 3 11 47 4 12 0 4 13 56 4 14 56 5 15 0 5 16 65 5 17 65 6 18 0 6 19 74 6 20 74 7 21 0 7 22 83 7 23 83 8 24 0 8 25 92 8 26 92 9 27 0 9 28 101 9 29 101 10 30 0 10 31 110 10 32 110 11 33 0 11 34 119 11 35 119 12 36 0 12 37 128 12 38 128 13 39 0 13 40 137 13 41 137 14 42 0 14 43 146 14 44 146 15 45 0 15 46 155 15 47 155 16 48 0 16 49 164 16 50 164 17 51 0 17 52 173 17 53 173 18 54 0 18 55 182 18 56 182 19 57 0 19 58 191 19 59 191 20 60 0 20 61 200 20 62 200 21 63 0 21 64 209 21 65 209 22 66 0 22 67 218 22 68 218 23 69 0 23 70 227 23 71 227 24 72 0 24 73 236 24 74 236 25 75 0 25 76 245 25 77 245 26 78 0 26 79 254 26 80 254 27 81 0 27 82 263 27 83 263 28 84 0 28 85 272 28 86 272 29 87 0 29 88 281 29 89 2 30 90 0 30 91 11 30 92 11 31 93 0 31 94 20 31 95 2 32 96 18 32 97 9 32 98 9 33 99 17 33 100 8 33 101 17 34 102 7 34 103 8 34 104 16 35 105 6 35 106 7 35 107 15 36 108 5 36 109 6 36 110 14 37 111 4 37 112 5 37 113 13 38 114 3 38 115 4 38 116 12 39 117 1 39 118 3 39 119 11 40 120 27 40 121 18 40 122 18 41 123 26 41 124 17 41 125 26 42 126 16 42 127 17 42 128 25 43 129 15 43 130 16 43 131 24 44 132 14 44 133 15 44 134 23 45 135 13 45 136 14 45 137 22 46 138 12 46 139 13 46 140 21 47 141 10 47 142 12 47 143 29 48 144 27 48 145 20 48 146 27 49 147 35 49 148 26 49 149 35 50 150 25 50 151 26 50 152 25 51 153 33 51 154 24 51 155 24 52 156 32 52 157 23 52 158 23 53 159 31 53 160 22 53 161 22 54 162 30 54 163 21 54 164 21 55 165 28 55 166 19 55 167 29 56 168 45 56 169 36 56 170 45 57 171 35 57 172 36 57 173 44 58 174 34 58 175 35 58 176 43 59 177 33 59 178 34 59 179 42 60 180 32 60 181 33 60 182 41 61 183 31 61 184 32 61 185 40 62 186 30 62 187 31 62 188 39 63 189 28 63 190 30 63 191 47 64 192 45 64 193 38 64 194 45 65 195 53 65 196 44 65 197 44 66 198 52 66 199 43 66 200 43 67 201 51 67 202 42 67 203 42 68 204 50 68 205 41 68 206 41 69 207 49 69 208 40 69 209 40 70 210 48 70 211 39 70 212 39 71 213 46 71 214 37 71 215 47 72 216 63 72 217 54 72 218 63 73 219 53 73 220 54 73 221 53 74 222 61 74 223 52 74 224 61 75 225 51 75 226 52 75 227 60 76 228 50 76 229 51 76 230 59 77 231 49 77 232 50 77 233 58 78 234 48 78 235 49 78 236 57 79 237 46 79 238 48 79 239 65 80 240 63 80 241 56 80 242 72 81 243 62 81 244 63 81 245 62 82 246 70 82 247 61 82 248 70 83 249 60 83 250 61 83 251 60 84 252 68 84 253 59 84 254 59 85 255 67 85 256 58 85 257 58 86 258 66 86 259 57 86 260 57 87 261 64 87 262 55 87 263 74 88 264 72 88 265 65 88 266 81 89 267 71 89 268 72 89 269 71 90 270 79 90 271 70 90 272 70 91 273 78 91 274 69 91 275 69 92 276 77 92 277 68 92 278 68 93 279 76 93 280 67 93 281 67 94 282 75 94 283 66 94 284 66 95 285 73 95 286 64 95 287 74 96 288 90 96 289 81 96 290 81 97 291 89 97 292 80 97 293 89 98 294 79 98 295 80 98 296 88 99 297 78 99 298 79 99 299 87 100 300 77 100 301 78 100 302 86 101 303 76 101 304 77 101 305 85 102 306 75 102 307 76 102 308 84 103 309 73 103 310 75 103 311 83 104 312 99 104 313 90 104 314 90 105 315 98 105 316 89 105 317 98 106 318 88 106 319 89 106 320 97 107 321 87 107 322 88 107 323 96 108 324 86 108 325 87 108 326 95 109 327 85 109 328 86 109 329 94 110 330 84 110 331 85 110 332 93 111 333 82 111 334 84 111 335 101 112 336 99 112 337 92 112 338 99 113 339 107 113 340 98 113 341 107 114 342 97 114 343 98 114 344 97 115 345 105 115 346 96 115 347 96 116 348 104 116 349 95 116 350 95 117 351 103 117 352 94 117 353 94 118 354 102 118 355 93 118 356 93 119 357 100 119 358 91 119 359 101 120 360 117 120 361 108 120 362 117 121 363 107 121 364 108 121 365 116 122 366 106 122 367 107 122 368 115 123 369 105 123 370 106 123 371 114 124 372 104 124 373 105 124 374 113 125 375 103 125 376 104 125 377 112 126 378 102 126 379 103 126 380 111 127 381 100 127 382 102 127 383 119 128 384 117 128 385 110 128 386 117 129 387 125 129 388 116 129 389 116 130 390 124 130 391 115 130 392 115 131 393 123 131 394 114 131 395 114 132 396 122 132 397 113 132 398 113 133 399 121 133 400 112 133 401 112 134 402 120 134 403 111 134 404 111 135 405 118 135 406 109 135 407 119 136 408 135 136 409 126 136 410 135 137 411 125 137 412 126 137 413 125 138 414 133 138 415 124 138 416 133 139 417 123 139 418 124 139 419 132 140 420 122 140 421 123 140 422 131 141 423 121 141 424 122 141 425 130 142 426 120 142 427 121 142 428 129 143 429 118 143 430 120 143 431 137 144 432 135 144 433 128 144 434 144 145 435 134 145 436 135 145 437 134 146 438 142 146 439 133 146 440 142 147 441 132 147 442 133 147 443 132 148 444 140 148 445 131 148 446 131 149 447 139 149 448 130 149 449 130 150 450 138 150 451 129 150 452 129 151 453 136 151 454 127 151 455 146 152 456 144 152 457 137 152 458 153 153 459 143 153 460 144 153 461 143 154 462 151 154 463 142 154 464 142 155 465 150 155 466 141 155 467 141 156 468 149 156 469 140 156 470 140 157 471 148 157 472 139 157 473 139 158 474 147 158 475 138 158 476 138 159 477 145 159 478 136 159 479 146 160 480 162 160 481 153 160 482 153 161 483 161 161 484 152 161 485 161 162 486 151 162 487 152 162 488 160 163 489 150 163 490 151 163 491 159 164 492 149 164 493 150 164 494 158 165 495 148 165 496 149 165 497 157 166 498 147 166 499 148 166 500 156 167 501 145 167 502 147 167 503 155 168 504 171 168 505 162 168 506 162 169 507 170 169 508 161 169 509 170 170 510 160 170 511 161 170 512 169 171 513 159 171 514 160 171 515 168 172 516 158 172 517 159 172 518 167 173 519 157 173 520 158 173 521 166 174 522 156 174 523 157 174 524 165 175 525 154 175 526 156 175 527 173 176 528 171 176 529 164 176 530 171 177 531 179 177 532 170 177 533 179 178 534 169 178 535 170 178 536 169 179 537 177 179 538 168 179 539 168 180 540 176 180 541 167 180 542 167 181 543 175 181 544 166 181 545 166 182 546 174 182 547 165 182 548 165 183 549 172 183 550 163 183 551 173 184 552 189 184 553 180 184 554 189 185 555 179 185 556 180 185 557 188 186 558 178 186 559 179 186 560 187 187 561 177 187 562 178 187 563 186 188 564 176 188 565 177 188 566 185 189 567 175 189 568 176 189 569 184 190 570 174 190 571 175 190 572 183 191 573 172 191 574 174 191 575 191 192 576 189 192 577 182 192 578 189 193 579 197 193 580 188 193 581 188 194 582 196 194 583 187 194 584 187 195 585 195 195 586 186 195 587 186 196 588 194 196 589 185 196 590 185 197 591 193 197 592 184 197 593 184 198 594 192 198 595 183 198 596 183 199 597 190 199 598 181 199 599 191 200 600 207 200 601 198 200 602 207 201 603 197 201 604 198 201 605 197 202 606 205 202 607 196 202 608 205 203 609 195 203 610 196 203 611 204 204 612 194 204 613 195 204 614 203 205 615 193 205 616 194 205 617 202 206 618 192 206 619 193 206 620 201 207 621 190 207 622 192 207 623 209 208 624 207 208 625 200 208 626 216 209 627 206 209 628 207 209 629 206 210 630 214 210 631 205 210 632 214 211 633 204 211 634 205 211 635 204 212 636 212 212 637 203 212 638 203 213 639 211 213 640 202 213 641 202 214 642 210 214 643 201 214 644 201 215 645 208 215 646 199 215 647 218 216 648 216 216 649 209 216 650 225 217 651 215 217 652 216 217 653 215 218 654 223 218 655 214 218 656 214 219 657 222 219 658 213 219 659 213 220 660 221 220 661 212 220 662 212 221 663 220 221 664 211 221 665 211 222 666 219 222 667 210 222 668 210 223 669 217 223 670 208 223 671 218 224 672 234 224 673 225 224 674 225 225 675 233 225 676 224 225 677 233 226 678 223 226 679 224 226 680 232 227 681 222 227 682 223 227 683 231 228 684 221 228 685 222 228 686 230 229 687 220 229 688 221 229 689 229 230 690 219 230 691 220 230 692 228 231 693 217 231 694 219 231 695 227 232 696 243 232 697 234 232 698 234 233 699 242 233 700 233 233 701 242 234 702 232 234 703 233 234 704 241 235 705 231 235 706 232 235 707 240 236 708 230 236 709 231 236 710 239 237 711 229 237 712 230 237 713 238 238 714 228 238 715 229 238 716 237 239 717 226 239 718 228 239 719 245 240 720 243 240 721 236 240 722 243 241 723 251 241 724 242 241 725 251 242 726 241 242 727 242 242 728 241 243 729 249 243 730 240 243 731 240 244 732 248 244 733 239 244 734 239 245 735 247 245 736 238 245 737 238 246 738 246 246 739 237 246 740 237 247 741 244 247 742 235 247 743 245 248 744 261 248 745 252 248 746 261 249 747 251 249 748 252 249 749 260 250 750 250 250 751 251 250 752 259 251 753 249 251 754 250 251 755 258 252 756 248 252 757 249 252 758 257 253 759 247 253 760 248 253 761 256 254 762 246 254 763 247 254 764 255 255 765 244 255 766 246 255 767 263 256 768 261 256 769 254 256 770 261 257 771 269 257 772 260 257 773 260 258 774 268 258 775 259 258 776 259 259 777 267 259 778 258 259 779 258 260 780 266 260 781 257 260 782 257 261 783 265 261 784 256 261 785 256 262 786 264 262 787 255 262 788 255 263 789 262 263 790 253 263 791 263 264 792 279 264 793 270 264 794 279 265 795 269 265 796 270 265 797 269 266 798 277 266 799 268 266 800 277 267 801 267 267 802 268 267 803 276 268 804 266 268 805 267 268 806 275 269 807 265 269 808 266 269 809 274 270 810 264 270 811 265 270 812 273 271 813 262 271 814 264 271 815 281 272 816 279 272 817 272 272 818 288 273 819 278 273 820 279 273 821 278 274 822 286 274 823 277 274 824 286 275 825 276 275 826 277 275 827 276 276 828 284 276 829 275 276 830 275 277 831 283 277 832 274 277 833 274 278 834 282 278 835 273 278 836 273 279 837 280 279 838 271 279 839 2 280 840 288 280 841 281 280 842 9 281 843 287 281 844 288 281 845 287 282 846 7 282 847 286 282 848 286 283 849 6 283 850 285 283 851 285 284 852 5 284 853 284 284 854 284 285 855 4 285 856 283 285 857 283 286 858 3 286 859 282 286 860 282 287 861 1 287 862 280 287 863 136 288 864 208 288 865 280 288 866 2 289 867 11 289 868 18 289 869 9 290 870 18 290 871 17 290 872 17 291 873 16 291 874 7 291 875 16 292 876 15 292 877 6 292 878 15 293 879 14 293 880 5 293 881 14 294 882 13 294 883 4 294 884 13 295 885 12 295 886 3 295 887 12 296 888 10 296 889 1 296 890 11 297 891 20 297 892 27 297 893 18 298 894 27 298 895 26 298 896 26 299 897 25 299 898 16 299 899 25 300 900 24 300 901 15 300 902 24 301 903 23 301 904 14 301 905 23 302 906 22 302 907 13 302 908 22 303 909 21 303 910 12 303 911 21 304 912 19 304 913 10 304 914 29 305 915 36 305 916 27 305 917 27 306 918 36 306 919 35 306 920 35 307 921 34 307 922 25 307 923 25 308 924 34 308 925 33 308 926 24 309 927 33 309 928 32 309 929 23 310 930 32 310 931 31 310 932 22 311 933 31 311 934 30 311 935 21 312 936 30 312 937 28 312 938 29 313 939 38 313 940 45 313 941 45 314 942 44 314 943 35 314 944 44 315 945 43 315 946 34 315 947 43 316 948 42 316 949 33 316 950 42 317 951 41 317 952 32 317 953 41 318 954 40 318 955 31 318 956 40 319 957 39 319 958 30 319 959 39 320 960 37 320 961 28 320 962 47 321 963 54 321 964 45 321 965 45 322 966 54 322 967 53 322 968 44 323 969 53 323 970 52 323 971 43 324 972 52 324 973 51 324 974 42 325 975 51 325 976 50 325 977 41 326 978 50 326 979 49 326 980 40 327 981 49 327 982 48 327 983 39 328 984 48 328 985 46 328 986 47 329 987 56 329 988 63 329 989 63 330 990 62 330 991 53 330 992 53 331 993 62 331 994 61 331 995 61 332 996 60 332 997 51 332 998 60 333 999 59 333 1000 50 333 1001 59 334 1002 58 334 1003 49 334 1004 58 335 1005 57 335 1006 48 335 1007 57 336 1008 55 336 1009 46 336 1010 65 337 1011 72 337 1012 63 337 1013 72 338 1014 71 338 1015 62 338 1016 62 339 1017 71 339 1018 70 339 1019 70 340 1020 69 340 1021 60 340 1022 60 341 1023 69 341 1024 68 341 1025 59 342 1026 68 342 1027 67 342 1028 58 343 1029 67 343 1030 66 343 1031 57 344 1032 66 344 1033 64 344 1034 74 345 1035 81 345 1036 72 345 1037 81 346 1038 80 346 1039 71 346 1040 71 347 1041 80 347 1042 79 347 1043 70 348 1044 79 348 1045 78 348 1046 69 349 1047 78 349 1048 77 349 1049 68 350 1050 77 350 1051 76 350 1052 67 351 1053 76 351 1054 75 351 1055 66 352 1056 75 352 1057 73 352 1058 74 353 1059 83 353 1060 90 353 1061 81 354 1062 90 354 1063 89 354 1064 89 355 1065 88 355 1066 79 355 1067 88 356 1068 87 356 1069 78 356 1070 87 357 1071 86 357 1072 77 357 1073 86 358 1074 85 358 1075 76 358 1076 85 359 1077 84 359 1078 75 359 1079 84 360 1080 82 360 1081 73 360 1082 83 361 1083 92 361 1084 99 361 1085 90 362 1086 99 362 1087 98 362 1088 98 363 1089 97 363 1090 88 363 1091 97 364 1092 96 364 1093 87 364 1094 96 365 1095 95 365 1096 86 365 1097 95 366 1098 94 366 1099 85 366 1100 94 367 1101 93 367 1102 84 367 1103 93 368 1104 91 368 1105 82 368 1106 101 369 1107 108 369 1108 99 369 1109 99 370 1110 108 370 1111 107 370 1112 107 371 1113 106 371 1114 97 371 1115 97 372 1116 106 372 1117 105 372 1118 96 373 1119 105 373 1120 104 373 1121 95 374 1122 104 374 1123 103 374 1124 94 375 1125 103 375 1126 102 375 1127 93 376 1128 102 376 1129 100 376 1130 101 377 1131 110 377 1132 117 377 1133 117 378 1134 116 378 1135 107 378 1136 116 379 1137 115 379 1138 106 379 1139 115 380 1140 114 380 1141 105 380 1142 114 381 1143 113 381 1144 104 381 1145 113 382 1146 112 382 1147 103 382 1148 112 383 1149 111 383 1150 102 383 1151 111 384 1152 109 384 1153 100 384 1154 119 385 1155 126 385 1156 117 385 1157 117 386 1158 126 386 1159 125 386 1160 116 387 1161 125 387 1162 124 387 1163 115 388 1164 124 388 1165 123 388 1166 114 389 1167 123 389 1168 122 389 1169 113 390 1170 122 390 1171 121 390 1172 112 391 1173 121 391 1174 120 391 1175 111 392 1176 120 392 1177 118 392 1178 119 393 1179 128 393 1180 135 393 1181 135 394 1182 134 394 1183 125 394 1184 125 395 1185 134 395 1186 133 395 1187 133 396 1188 132 396 1189 123 396 1190 132 397 1191 131 397 1192 122 397 1193 131 398 1194 130 398 1195 121 398 1196 130 399 1197 129 399 1198 120 399 1199 129 400 1200 127 400 1201 118 400 1202 137 401 1203 144 401 1204 135 401 1205 144 402 1206 143 402 1207 134 402 1208 134 403 1209 143 403 1210 142 403 1211 142 404 1212 141 404 1213 132 404 1214 132 405 1215 141 405 1216 140 405 1217 131 406 1218 140 406 1219 139 406 1220 130 407 1221 139 407 1222 138 407 1223 129 408 1224 138 408 1225 136 408 1226 146 409 1227 153 409 1228 144 409 1229 153 410 1230 152 410 1231 143 410 1232 143 411 1233 152 411 1234 151 411 1235 142 412 1236 151 412 1237 150 412 1238 141 413 1239 150 413 1240 149 413 1241 140 414 1242 149 414 1243 148 414 1244 139 415 1245 148 415 1246 147 415 1247 138 416 1248 147 416 1249 145 416 1250 146 417 1251 155 417 1252 162 417 1253 153 418 1254 162 418 1255 161 418 1256 161 419 1257 160 419 1258 151 419 1259 160 420 1260 159 420 1261 150 420 1262 159 421 1263 158 421 1264 149 421 1265 158 422 1266 157 422 1267 148 422 1268 157 423 1269 156 423 1270 147 423 1271 156 424 1272 154 424 1273 145 424 1274 155 425 1275 164 425 1276 171 425 1277 162 426 1278 171 426 1279 170 426 1280 170 427 1281 169 427 1282 160 427 1283 169 428 1284 168 428 1285 159 428 1286 168 429 1287 167 429 1288 158 429 1289 167 430 1290 166 430 1291 157 430 1292 166 431 1293 165 431 1294 156 431 1295 165 432 1296 163 432 1297 154 432 1298 173 433 1299 180 433 1300 171 433 1301 171 434 1302 180 434 1303 179 434 1304 179 435 1305 178 435 1306 169 435 1307 169 436 1308 178 436 1309 177 436 1310 168 437 1311 177 437 1312 176 437 1313 167 438 1314 176 438 1315 175 438 1316 166 439 1317 175 439 1318 174 439 1319 165 440 1320 174 440 1321 172 440 1322 173 441 1323 182 441 1324 189 441 1325 189 442 1326 188 442 1327 179 442 1328 188 443 1329 187 443 1330 178 443 1331 187 444 1332 186 444 1333 177 444 1334 186 445 1335 185 445 1336 176 445 1337 185 446 1338 184 446 1339 175 446 1340 184 447 1341 183 447 1342 174 447 1343 183 448 1344 181 448 1345 172 448 1346 191 449 1347 198 449 1348 189 449 1349 189 450 1350 198 450 1351 197 450 1352 188 451 1353 197 451 1354 196 451 1355 187 452 1356 196 452 1357 195 452 1358 186 453 1359 195 453 1360 194 453 1361 185 454 1362 194 454 1363 193 454 1364 184 455 1365 193 455 1366 192 455 1367 183 456 1368 192 456 1369 190 456 1370 191 457 1371 200 457 1372 207 457 1373 207 458 1374 206 458 1375 197 458 1376 197 459 1377 206 459 1378 205 459 1379 205 460 1380 204 460 1381 195 460 1382 204 461 1383 203 461 1384 194 461 1385 203 462 1386 202 462 1387 193 462 1388 202 463 1389 201 463 1390 192 463 1391 201 464 1392 199 464 1393 190 464 1394 209 465 1395 216 465 1396 207 465 1397 216 466 1398 215 466 1399 206 466 1400 206 467 1401 215 467 1402 214 467 1403 214 468 1404 213 468 1405 204 468 1406 204 469 1407 213 469 1408 212 469 1409 203 470 1410 212 470 1411 211 470 1412 202 471 1413 211 471 1414 210 471 1415 201 472 1416 210 472 1417 208 472 1418 218 473 1419 225 473 1420 216 473 1421 225 474 1422 224 474 1423 215 474 1424 215 475 1425 224 475 1426 223 475 1427 214 476 1428 223 476 1429 222 476 1430 213 477 1431 222 477 1432 221 477 1433 212 478 1434 221 478 1435 220 478 1436 211 479 1437 220 479 1438 219 479 1439 210 480 1440 219 480 1441 217 480 1442 218 481 1443 227 481 1444 234 481 1445 225 482 1446 234 482 1447 233 482 1448 233 483 1449 232 483 1450 223 483 1451 232 484 1452 231 484 1453 222 484 1454 231 485 1455 230 485 1456 221 485 1457 230 486 1458 229 486 1459 220 486 1460 229 487 1461 228 487 1462 219 487 1463 228 488 1464 226 488 1465 217 488 1466 227 489 1467 236 489 1468 243 489 1469 234 490 1470 243 490 1471 242 490 1472 242 491 1473 241 491 1474 232 491 1475 241 492 1476 240 492 1477 231 492 1478 240 493 1479 239 493 1480 230 493 1481 239 494 1482 238 494 1483 229 494 1484 238 495 1485 237 495 1486 228 495 1487 237 496 1488 235 496 1489 226 496 1490 245 497 1491 252 497 1492 243 497 1493 243 498 1494 252 498 1495 251 498 1496 251 499 1497 250 499 1498 241 499 1499 241 500 1500 250 500 1501 249 500 1502 240 501 1503 249 501 1504 248 501 1505 239 502 1506 248 502 1507 247 502 1508 238 503 1509 247 503 1510 246 503 1511 237 504 1512 246 504 1513 244 504 1514 245 505 1515 254 505 1516 261 505 1517 261 506 1518 260 506 1519 251 506 1520 260 507 1521 259 507 1522 250 507 1523 259 508 1524 258 508 1525 249 508 1526 258 509 1527 257 509 1528 248 509 1529 257 510 1530 256 510 1531 247 510 1532 256 511 1533 255 511 1534 246 511 1535 255 512 1536 253 512 1537 244 512 1538 263 513 1539 270 513 1540 261 513 1541 261 514 1542 270 514 1543 269 514 1544 260 515 1545 269 515 1546 268 515 1547 259 516 1548 268 516 1549 267 516 1550 258 517 1551 267 517 1552 266 517 1553 257 518 1554 266 518 1555 265 518 1556 256 519 1557 265 519 1558 264 519 1559 255 520 1560 264 520 1561 262 520 1562 263 521 1563 272 521 1564 279 521 1565 279 522 1566 278 522 1567 269 522 1568 269 523 1569 278 523 1570 277 523 1571 277 524 1572 276 524 1573 267 524 1574 276 525 1575 275 525 1576 266 525 1577 275 526 1578 274 526 1579 265 526 1580 274 527 1581 273 527 1582 264 527 1583 273 528 1584 271 528 1585 262 528 1586 281 529 1587 288 529 1588 279 529 1589 288 530 1590 287 530 1591 278 530 1592 278 531 1593 287 531 1594 286 531 1595 286 532 1596 285 532 1597 276 532 1598 276 533 1599 285 533 1600 284 533 1601 275 534 1602 284 534 1603 283 534 1604 274 535 1605 283 535 1606 282 535 1607 273 536 1608 282 536 1609 280 536 1610 2 537 1611 9 537 1612 288 537 1613 9 538 1614 8 538 1615 287 538 1616 287 539 1617 8 539 1618 7 539 1619 286 540 1620 7 540 1621 6 540 1622 285 541 1623 6 541 1624 5 541 1625 284 542 1626 5 542 1627 4 542 1628 283 543 1629 4 543 1630 3 543 1631 282 544 1632 3 544 1633 1 544 1634 280 545 1635 1 545 1636 10 545 1637 10 546 1638 19 546 1639 28 546 1640 28 547 1641 37 547 1642 46 547 1643 46 548 1644 55 548 1645 64 548 1646 64 549 1647 73 549 1648 82 549 1649 82 550 1650 91 550 1651 100 550 1652 100 551 1653 109 551 1654 118 551 1655 118 552 1656 127 552 1657 136 552 1658 136 553 1659 145 553 1660 154 553 1661 154 554 1662 163 554 1663 172 554 1664 172 555 1665 181 555 1666 190 555 1667 190 556 1668 199 556 1669 208 556 1670 208 557 1671 217 557 1672 226 557 1673 226 558 1674 235 558 1675 244 558 1676 244 559 1677 253 559 1678 262 559 1679 262 560 1680 271 560 1681 280 560 1682 280 561 1683 10 561 1684 28 561 1685 28 562 1686 46 562 1687 280 562 1688 46 563 1689 64 563 1690 280 563 1691 64 564 1692 82 564 1693 100 564 1694 100 565 1695 118 565 1696 64 565 1697 118 566 1698 136 566 1699 64 566 1700 136 567 1701 154 567 1702 172 567 1703 172 568 1704 190 568 1705 136 568 1706 190 569 1707 208 569 1708 136 569 1709 208 570 1710 226 570 1711 244 570 1712 244 571 1713 262 571 1714 208 571 1715 262 572 1716 280 572 1717 208 572 1718 280 573 1719 64 573 1720 136 573 1721</p>
        </triangles>
      </mesh>
    </geometry>
  </library_geometries>
  <library_visual_scenes>
    <visual_scene id="Scene" name="Scene">
      <node id="Cone" name="Cone" type="NODE">
        <matrix sid="transform">0.02889722 0 0 0 0 0.02889722 0 0 0 0 0.02889722 0 0 0 0 1</matrix>
        <instance_geometry url="#Cone-mesh" name="Cone">
          <bind_material>
            <technique_common>
              <instance_material symbol="Material_002-material" target="#Material_002-material">
                <bind_vertex_input semantic="UVMap" input_semantic="TEXCOORD" input_set="0"/>
              </instance_material>
            </technique_common>
          </bind_material>
        </instance_geometry>
      </node>
    </visual_scene>
  </library_visual_scenes>
  <scene>
    <instance_visual_scene url="#Scene"/>
  </scene>
</COLLADA>