<?xml version="1.0" encoding="utf-8"?>
<COLLADA xmlns="http://www.collada.org/2005/11/COLLADASchema" version="1.4.1" xmlns:xsi="http://www.w3.org/2001/XMLSchema-instance">
  <asset>
    <contributor>
      <author>Blender User</author>
      <authoring_tool>Blender 4.4.3 commit date:2025-04-29, commit time:14:09, hash:802179c51ccc</authoring_tool>
    </contributor>
    <created>2025-07-02T16:46:53</created>
    <modified>2025-07-02T16:46:53</modified>
    <unit name="meter" meter="1"/>
    <up_axis>Z_UP</up_axis>
  </asset>
  <library_effects>
    <effect id="Material_006-effect">
      <profile_COMMON>
        <technique sid="common">
          <lambert>
            <emission>
              <color sid="emission">0 0 0 1</color>
            </emission>
            <diffuse>
              <color sid="diffuse">0.8005756 0.5508066 0.06823017 1</color>
            </diffuse>
            <index_of_refraction>
              <float sid="ior">1.5</float>
            </index_of_refraction>
          </lambert>
        </technique>
      </profile_COMMON>
    </effect>
    <effect id="Material_004-effect">
      <profile_COMMON>
        <technique sid="common">
          <lambert>
            <emission>
              <color sid="emission">0 0 0 1</color>
            </emission>
            <diffuse>
              <color sid="diffuse">0.6651269 0.8003778 0.2313033 1</color>
            </diffuse>
            <index_of_refraction>
              <float sid="ior">1.45</float>
            </index_of_refraction>
          </lambert>
        </technique>
      </profile_COMMON>
    </effect>
  </library_effects>
  <library_images/>
  <library_materials>
    <material id="Material_006-material" name="Material.006">
      <instance_effect url="#Material_006-effect"/>
    </material>
    <material id="Material_004-material" name="Material.004">
      <instance_effect url="#Material_004-effect"/>
    </material>
  </library_materials>
  <library_geometries>
    <geometry id="Cylinder_005-mesh" name="Cylinder.005">
      <mesh>
        <source id="Cylinder_005-mesh-positions">
          <float_array id="Cylinder_005-mesh-positions-array" count="384">0 1 -1 0 1 1 0.1950903 0.9807853 -1 0.1950903 0.9807853 1 0.3826835 0.9238795 -1 0.3826835 0.9238795 1 0.5555703 0.8314696 -1 0.5555703 0.8314696 1 0.7071068 0.7071068 -1 0.7071068 0.7071068 1 0.8314696 0.5555703 -1 0.8314696 0.5555703 1 0.9238795 0.3826835 -1 0.9238795 0.3826835 1 0.9807853 0.1950903 -1 0.9807853 0.1950903 1 1 0 -1 1 0 1 0.9807853 -0.1950903 -1 0.9807853 -0.1950903 1 0.9238795 -0.3826835 -1 0.9238795 -0.3826835 1 0.8314696 -0.5555703 -1 0.8314696 -0.5555703 1 0.7071068 -0.7071068 -1 0.7071068 -0.7071068 1 0.5555703 -0.8314696 -1 0.5555703 -0.8314696 1 0.3826835 -0.9238795 -1 0.3826835 -0.9238795 1 0.1950903 -0.9807853 -1 0.1950903 -0.9807853 1 0 -1 -1 0 -1 1 -0.1950903 -0.9807853 -1 -0.1950903 -0.9807853 1 -0.3826835 -0.9238795 -1 -0.3826835 -0.9238795 1 -0.5555703 -0.8314696 -1 -0.5555703 -0.8314696 1 -0.7071068 -0.7071068 -1 -0.7071068 -0.7071068 1 -0.8314696 -0.5555703 -1 -0.8314696 -0.5555703 1 -0.9238795 -0.3826835 -1 -0.9238795 -0.3826835 1 -0.9807853 -0.1950903 -1 -0.9807853 -0.1950903 1 -1 0 -1 -1 0 1 -0.9807853 0.1950903 -1 -0.9807853 0.1950903 1 -0.9238795 0.3826835 -1 -0.9238795 0.3826835 1 -0.8314696 0.5555703 -1 -0.8314696 0.5555703 1 -0.7071068 0.7071068 -1 -0.7071068 0.7071068 1 -0.5555703 0.8314696 -1 -0.5555703 0.8314696 1 -0.3826835 0.9238795 -1 -0.3826835 0.9238795 1 -0.1950903 0.9807853 -1 -0.1950903 0.9807853 1 0.006091177 0.5056526 0.01457715 0.006091177 0.5056526 1.946448 0.1475675 0.4950577 0.01457715 0.1475675 0.4950577 1.946448 0.2836071 0.46368 0.01457715 0.2836071 0.46368 1.946448 0.4089818 0.4127253 0.01457715 0.4089818 0.4127253 1.946448 0.5188736 0.344152 0.01457715 0.5188736 0.344152 1.946448 0.6090595 0.2605952 0.01457715 0.6090595 0.2605952 1.946448 0.6760737 0.1652657 0.01457715 0.6760737 0.1652657 1.946448 0.7173408 0.06182742 0.01457715 0.7173408 0.06182742 1.946448 0.731275 -0.04574489 0.01457715 0.731275 -0.04574489 1.946448 0.7173408 -0.1533172 0.01457709 0.7173408 -0.1533172 1.946448 0.6760737 -0.2567556 0.01457709 0.6760737 -0.2567556 1.946448 0.6090595 -0.3520849 0.01457715 0.6090595 -0.3520849 1.946448 0.5188736 -0.4356418 0.01457715 0.5188736 -0.4356418 1.946448 0.4089818 -0.5042151 0.01457715 0.4089818 -0.5042151 1.946448 0.2836071 -0.5551698 0.01457715 0.2836071 -0.5551698 1.946448 0.1475675 -0.5865474 0.01457715 0.1475675 -0.5865474 1.946448 0.006091237 -0.5971424 0.01457715 0.006091237 -0.5971424 1.946448 -0.135385 -0.5865474 0.01457715 -0.135385 -0.5865474 1.946448 -0.2714246 -0.5551698 0.01457715 -0.2714246 -0.5551698 1.946448 -0.3967993 -0.5042151 0.01457715 -0.3967993 -0.5042151 1.946448 -0.5066911 -0.4356418 0.01457715 -0.5066911 -0.4356418 1.946448 -0.596877 -0.3520849 0.01457715 -0.596877 -0.3520849 1.946448 -0.6638912 -0.2567556 0.01457715 -0.6638912 -0.2567556 1.946448 -0.7051584 -0.1533172 0.01457715 -0.7051584 -0.1533172 1.946448 -0.7190926 -0.04574489 0.01457715 -0.7190926 -0.04574489 1.946448 -0.7051584 0.06182742 0.0145772 -0.7051584 0.06182742 1.946448 -0.6638912 0.1652657 0.0145772 -0.6638912 0.1652657 1.946448 -0.596877 0.2605952 0.01457715 -0.596877 0.2605952 1.946448 -0.5066911 0.344152 0.01457715 -0.5066911 0.344152 1.946448 -0.3967993 0.4127253 0.01457715 -0.3967993 0.4127253 1.946448 -0.2714246 0.46368 0.01457715 -0.2714246 0.46368 1.946448 -0.135385 0.4950577 0.01457715 -0.135385 0.4950577 1.946448</float_array>
          <technique_common>
            <accessor source="#Cylinder_005-mesh-positions-array" count="128" stride="3">
              <param name="X" type="float"/>
              <param name="Y" type="float"/>
              <param name="Z" type="float"/>
            </accessor>
          </technique_common>
        </source>
        <source id="Cylinder_005-mesh-normals">
          <float_array id="Cylinder_005-mesh-normals-array" count="744">0.09801727 0.9951847 0 0.2902846 0.9569404 0 0.4713967 0.8819213 0 0.6343933 0.7730104 0 0.7730104 0.6343933 0 0.8819213 0.4713967 0 0.9569404 0.2902846 0 0.9951847 0.09801727 0 0.9951847 -0.09801727 0 0.9569404 -0.2902846 0 0.8819213 -0.4713967 0 0.7730104 -0.6343933 0 0.6343933 -0.7730104 0 0.4713967 -0.8819213 0 0.2902846 -0.9569404 0 0.09801727 -0.9951847 0 -0.09801727 -0.9951847 0 -0.2902846 -0.9569404 0 -0.4713967 -0.8819213 0 -0.6343933 -0.7730104 0 -0.7730104 -0.6343933 0 -0.8819213 -0.4713967 0 -0.9569404 -0.2902846 0 -0.9951847 -0.09801727 0 -0.9951847 0.09801727 0 -0.9569404 0.2902846 0 -0.8819213 0.4713967 0 -0.7730104 0.6343933 0 -0.6343933 0.7730104 0 -0.4713967 0.8819213 0 0 0 1 -0.2902846 0.9569404 0 -0.09801727 0.9951847 0 0 0 -1 0.07467943 0.9972075 0 0.2247503 0.9744164 0 0.3765111 0.9264121 0 0.5293936 0.8483763 0 0.679633 0.7335524 0 0.8180869 0.5750947 0 0.9288113 0.370553 0 0.9917147 0.1284601 0 0.9917147 -0.1284601 0 0.9288113 -0.370553 0 0.8180869 -0.5750947 0 0.679633 -0.7335524 0 0.5293934 -0.8483765 0 0.3765113 -0.9264121 0 0.2247503 -0.9744164 0 0.07467943 -0.9972075 0 -0.07467943 -0.9972075 0 -0.2247503 -0.9744164 0 -0.3765113 -0.9264121 0 -0.5293934 -0.8483765 0 -0.679633 -0.7335524 0 -0.8180869 -0.5750947 0 -0.9288113 -0.370553 0 -0.9917147 -0.1284601 0 -0.9917147 0.1284601 0 -0.9288113 0.370553 0 -0.8180869 0.5750947 0 -0.679633 0.7335524 0 -0.5293936 0.8483763 0 -0.3765111 0.9264121 0 0 0 1 -0.2247503 0.9744164 0 -0.07467943 0.9972075 0 0 0 -1 0.09801727 0.9951847 0 0.2902846 0.9569404 0 0.4713967 0.8819213 0 0.6343933 0.7730104 0 0.7730104 0.6343933 0 0.8819213 0.4713967 0 0.9569404 0.2902846 0 0.9951847 0.09801727 0 0.9951847 -0.09801727 0 0.9569404 -0.2902846 0 0.8819213 -0.4713967 0 0.7730104 -0.6343933 0 0.6343933 -0.7730104 0 0.4713967 -0.8819213 0 0.2902846 -0.9569404 0 0.09801727 -0.9951847 0 -0.09801727 -0.9951847 0 -0.2902846 -0.9569404 0 -0.4713967 -0.8819213 0 -0.6343933 -0.7730104 0 -0.7730104 -0.6343933 0 -0.8819213 -0.4713967 0 -0.9569404 -0.2902846 0 -0.9951847 -0.09801727 0 -0.9951847 0.09801727 0 -0.9569404 0.2902846 0 -0.8819213 0.4713967 0 -0.7730104 0.6343933 0 -0.6343933 0.7730104 0 -0.4713967 0.8819213 0 0 0 1 0 0 1 0 0 1 0 0 1 0 0 1 0 0 1 0 0 1 0 0 1 0 0 1 0 0 1 0 0 1 0 0 1 0 0 1 0 0 1 0 0 1 0 0 1 0 0 1 0 0 1 0 0 1 0 0 1 0 0 1 0 0 1 0 0 1 0 0 1 0 0 1 0 0 1 0 0 1 0 0 1 0 0 1 -0.2902846 0.9569404 0 -0.09801727 0.9951847 0 0 0 -1 0 0 -1 0 0 -1 0 0 -1 0 0 -1 0 0 -1 0 0 -1 0 0 -1 0 0 -1 0 0 -1 0 0 -1 0 0 -1 0 0 -1 0 0 -1 0 0 -1 0 0 -1 0 0 -1 0 0 -1 0 0 -1 0 0 -1 0 0 -1 0 0 -1 0 0 -1 0 0 -1 0 0 -1 0 0 -1 0 0 -1 0 0 -1 0 0 -1 0.07467943 0.9972075 0 0.2247503 0.9744164 0 0.3765111 0.9264121 0 0.5293936 0.8483763 0 0.679633 0.7335524 0 0.8180869 0.5750947 0 0.9288113 0.370553 0 0.9917147 0.1284601 0 0.9917147 -0.1284601 0 0.9288113 -0.370553 0 0.8180869 -0.5750947 0 0.679633 -0.7335524 0 0.5293934 -0.8483765 0 0.3765113 -0.9264121 0 0.2247503 -0.9744164 0 0.07467943 -0.9972075 0 -0.07467943 -0.9972075 0 -0.2247503 -0.9744164 0 -0.3765113 -0.9264121 0 -0.5293934 -0.8483765 0 -0.679633 -0.7335524 0 -0.8180869 -0.5750947 0 -0.9288113 -0.370553 0 -0.9917147 -0.1284601 0 -0.9917147 0.1284601 0 -0.9288113 0.370553 0 -0.8180869 0.5750947 0 -0.679633 0.7335524 0 -0.5293936 0.8483763 0 -0.3765111 0.9264121 0 0 0 1 0 0 1 0 0 1 0 0 1 0 0 1 0 0 1 0 0 1 0 0 1 0 0 1 0 0 1 0 0 1 0 0 1 0 0 1 0 0 1 0 0 1 0 0 1 0 0 1 0 0 1 0 0 1 0 0 1 0 0 1 0 0 1 0 0 1 0 0 1 0 0 1 0 0 1 0 0 1 0 0 1 0 0 1 -0.2247503 0.9744164 0 -0.07467943 0.9972075 0 0 0 -1 0 0 -1 0 0 -1 0 0 -1 0 0 -1 0 0 -1 0 0 -1 0 0 -1 3.54016e-7 1.41236e-7 -1 -1.09035e-6 1.41236e-7 -1 2.13879e-6 2.77045e-7 -1 -6.94427e-7 2.77045e-7 -1 0 0 -1 0 0 -1 0 0 -1 0 0 -1 0 0 -1 0 0 -1 0 0 -1 0 0 -1 0 0 -1 0 0 -1 0 0 -1 3.54016e-7 1.41236e-7 -1 -1.09035e-6 1.41236e-7 -1 2.13879e-6 2.77045e-7 -1 -6.94427e-7 2.77045e-7 -1 0 0 -1 0 0 -1</float_array>
          <technique_common>
            <accessor source="#Cylinder_005-mesh-normals-array" count="248" stride="3">
              <param name="X" type="float"/>
              <param name="Y" type="float"/>
              <param name="Z" type="float"/>
            </accessor>
          </technique_common>
        </source>
        <source id="Cylinder_005-mesh-map">
          <float_array id="Cylinder_005-mesh-map-array" count="1488">1 1 0.96875 0.5 1 0.5 0.96875 1 0.9375 0.5 0.96875 0.5 0.9375 1 0.90625 0.5 0.9375 0.5 0.90625 1 0.875 0.5 0.90625 0.5 0.875 1 0.84375 0.5 0.875 0.5 0.84375 1 0.8125 0.5 0.84375 0.5 0.8125 1 0.78125 0.5 0.8125 0.5 0.78125 1 0.75 0.5 0.78125 0.5 0.75 1 0.71875 0.5 0.75 0.5 0.71875 1 0.6875 0.5 0.71875 0.5 0.6875 1 0.65625 0.5 0.6875 0.5 0.65625 1 0.625 0.5 0.65625 0.5 0.625 1 0.59375 0.5 0.625 0.5 0.59375 1 0.5625 0.5 0.59375 0.5 0.5625 1 0.53125 0.5 0.5625 0.5 0.53125 1 0.5 0.5 0.53125 0.5 0.5 1 0.46875 0.5 0.5 0.5 0.46875 1 0.4375 0.5 0.46875 0.5 0.4375 1 0.40625 0.5 0.4375 0.5 0.40625 1 0.375 0.5 0.40625 0.5 0.375 1 0.34375 0.5 0.375 0.5 0.34375 1 0.3125 0.5 0.34375 0.5 0.3125 1 0.28125 0.5 0.3125 0.5 0.28125 1 0.25 0.5 0.28125 0.5 0.25 1 0.21875 0.5 0.25 0.5 0.21875 1 0.1875 0.5 0.21875 0.5 0.1875 1 0.15625 0.5 0.1875 0.5 0.15625 1 0.125 0.5 0.15625 0.5 0.125 1 0.09375 0.5 0.125 0.5 0.09375 1 0.0625 0.5 0.09375 0.5 0.1581559 0.02826887 0.4717311 0.1581559 0.341844 0.4717311 0.0625 1 0.03125 0.5 0.0625 0.5 0.03125 1 0 0.5 0.03125 0.5 0.7968217 0.01461154 0.5146116 0.2031783 0.7031784 0.4853885 1 1 0.96875 0.5 1 0.5 0.96875 1 0.9375 0.5 0.96875 0.5 0.9375 1 0.90625 0.5 0.9375 0.5 0.90625 1 0.875 0.5 0.90625 0.5 0.875 1 0.84375 0.5 0.875 0.5 0.84375 1 0.8125 0.5 0.84375 0.5 0.8125 1 0.78125 0.5 0.8125 0.5 0.78125 1 0.75 0.5 0.78125 0.5 0.75 1 0.71875 0.5 0.75 0.5 0.71875 1 0.6875 0.5 0.71875 0.5 0.6875 1 0.65625 0.5 0.6875 0.5 0.65625 1 0.625 0.5 0.65625 0.5 0.625 1 0.59375 0.5 0.625 0.5 0.59375 1 0.5625 0.5 0.59375 0.5 0.5625 1 0.53125 0.5 0.5625 0.5 0.53125 1 0.5 0.5 0.53125 0.5 0.5 1 0.46875 0.5 0.5 0.5 0.46875 1 0.4375 0.5 0.46875 0.5 0.4375 1 0.40625 0.5 0.4375 0.5 0.40625 1 0.375 0.5 0.40625 0.5 0.375 1 0.34375 0.5 0.375 0.5 0.34375 1 0.3125 0.5 0.34375 0.5 0.3125 1 0.28125 0.5 0.3125 0.5 0.28125 1 0.25 0.5 0.28125 0.5 0.25 1 0.21875 0.5 0.25 0.5 0.21875 1 0.1875 0.5 0.21875 0.5 0.1875 1 0.15625 0.5 0.1875 0.5 0.15625 1 0.125 0.5 0.15625 0.5 0.125 1 0.09375 0.5 0.125 0.5 0.09375 1 0.0625 0.5 0.09375 0.5 0.4197056 0.4197056 0.3833369 0.4495527 0.4197056 0.08029437 0.0625 1 0.03125 0.5 0.0625 0.5 0.03125 1 0 0.5 0.03125 0.5 0.6166632 0.4495527 0.658156 0.4717311 0.6166632 0.05044728 1 1 0.96875 1 0.96875 0.5 0.96875 1 0.9375 1 0.9375 0.5 0.9375 1 0.90625 1 0.90625 0.5 0.90625 1 0.875 1 0.875 0.5 0.875 1 0.84375 1 0.84375 0.5 0.84375 1 0.8125 1 0.8125 0.5 0.8125 1 0.78125 1 0.78125 0.5 0.78125 1 0.75 1 0.75 0.5 0.75 1 0.71875 1 0.71875 0.5 0.71875 1 0.6875 1 0.6875 0.5 0.6875 1 0.65625 1 0.65625 0.5 0.65625 1 0.625 1 0.625 0.5 0.625 1 0.59375 1 0.59375 0.5 0.59375 1 0.5625 1 0.5625 0.5 0.5625 1 0.53125 1 0.53125 0.5 0.53125 1 0.5 1 0.5 0.5 0.5 1 0.46875 1 0.46875 0.5 0.46875 1 0.4375 1 0.4375 0.5 0.4375 1 0.40625 1 0.40625 0.5 0.40625 1 0.375 1 0.375 0.5 0.375 1 0.34375 1 0.34375 0.5 0.34375 1 0.3125 1 0.3125 0.5 0.3125 1 0.28125 1 0.28125 0.5 0.28125 1 0.25 1 0.25 0.5 0.25 1 0.21875 1 0.21875 0.5 0.21875 1 0.1875 1 0.1875 0.5 0.1875 1 0.15625 1 0.15625 0.5 0.15625 1 0.125 1 0.125 0.5 0.125 1 0.09375 1 0.09375 0.5 0.09375 1 0.0625 1 0.0625 0.5 0.341844 0.4717311 0.2968217 0.4853885 0.25 0.49 0.25 0.49 0.2031783 0.4853885 0.341844 0.4717311 0.2031783 0.4853885 0.1581559 0.4717311 0.341844 0.4717311 0.1581559 0.4717311 0.1166631 0.4495527 0.08029437 0.4197056 0.08029437 0.4197056 0.05044728 0.3833369 0.02826887 0.341844 0.02826887 0.341844 0.01461154 0.2968217 0.00999999 0.25 0.00999999 0.25 0.01461154 0.2031783 0.02826887 0.341844 0.01461154 0.2031783 0.02826887 0.1581559 0.02826887 0.341844 0.02826887 0.1581559 0.05044728 0.1166631 0.08029437 0.08029437 0.08029437 0.08029437 0.1166631 0.05044728 0.1581559 0.02826887 0.1581559 0.02826887 0.2031783 0.01461154 0.341844 0.02826887 0.2031783 0.01461154 0.25 0.00999999 0.341844 0.02826887 0.25 0.00999999 0.2968217 0.01461154 0.341844 0.02826887 0.341844 0.02826887 0.3833369 0.05044728 0.4197056 0.08029437 0.4197056 0.08029437 0.4495527 0.1166631 0.4717311 0.1581559 0.4717311 0.1581559 0.4853885 0.2031783 0.4717311 0.341844 0.4853885 0.2031783 0.49 0.25 0.4717311 0.341844 0.49 0.25 0.4853885 0.2968217 0.4717311 0.341844 0.4717311 0.341844 0.4495527 0.3833369 0.4197056 0.4197056 0.4197056 0.4197056 0.3833369 0.4495527 0.341844 0.4717311 0.1581559 0.4717311 0.08029437 0.4197056 0.341844 0.4717311 0.08029437 0.4197056 0.02826887 0.341844 0.341844 0.4717311 0.02826887 0.1581559 0.08029437 0.08029437 0.02826887 0.341844 0.08029437 0.08029437 0.1581559 0.02826887 0.02826887 0.341844 0.341844 0.02826887 0.4197056 0.08029437 0.1581559 0.02826887 0.4197056 0.08029437 0.4717311 0.1581559 0.1581559 0.02826887 0.4717311 0.341844 0.4197056 0.4197056 0.4717311 0.1581559 0.4197056 0.4197056 0.341844 0.4717311 0.4717311 0.1581559 0.341844 0.4717311 0.02826887 0.341844 0.1581559 0.02826887 0.0625 1 0.03125 1 0.03125 0.5 0.03125 1 0 1 0 0.5 0.7031784 0.4853885 0.75 0.49 0.7968217 0.4853885 0.7968217 0.4853885 0.841844 0.4717311 0.8833369 0.4495527 0.8833369 0.4495527 0.9197056 0.4197056 0.9495527 0.3833369 0.9495527 0.3833369 0.9717311 0.341844 0.9853885 0.2968217 0.9853885 0.2968217 0.99 0.25 0.9853885 0.2031783 0.9853885 0.2031783 0.9717311 0.1581559 0.9495527 0.1166631 0.9495527 0.1166631 0.9197056 0.08029437 0.8833369 0.05044728 0.8833369 0.05044728 0.841844 0.02826887 0.7968217 0.01461154 0.7968217 0.01461154 0.75 0.00999999 0.7031784 0.01461154 0.7031784 0.01461154 0.658156 0.02826887 0.6166632 0.05044728 0.6166632 0.05044728 0.5802944 0.08029437 0.5504473 0.1166631 0.5504473 0.1166631 0.5282689 0.1581559 0.5146116 0.2031783 0.5146116 0.2031783 0.51 0.25 0.5146116 0.2968217 0.5146116 0.2968217 0.5282689 0.341844 0.5504473 0.3833369 0.5504473 0.3833369 0.5802944 0.4197056 0.6166632 0.4495527 0.6166632 0.4495527 0.658156 0.4717311 0.7031784 0.4853885 0.7031784 0.4853885 0.7968217 0.4853885 0.9853885 0.2968217 0.7968217 0.4853885 0.8833369 0.4495527 0.9853885 0.2968217 0.8833369 0.4495527 0.9495527 0.3833369 0.9853885 0.2968217 0.9853885 0.2968217 0.9853885 0.2031783 0.7968217 0.01461154 0.9853885 0.2031783 0.9495527 0.1166631 0.7968217 0.01461154 0.9495527 0.1166631 0.8833369 0.05044728 0.7968217 0.01461154 0.7968217 0.01461154 0.7031784 0.01461154 0.5146116 0.2031783 0.7031784 0.01461154 0.6166632 0.05044728 0.5146116 0.2031783 0.6166632 0.05044728 0.5504473 0.1166631 0.5146116 0.2031783 0.5146116 0.2031783 0.5146116 0.2968217 0.7031784 0.4853885 0.5146116 0.2968217 0.5504473 0.3833369 0.7031784 0.4853885 0.5504473 0.3833369 0.6166632 0.4495527 0.7031784 0.4853885 0.7031784 0.4853885 0.9853885 0.2968217 0.7968217 0.01461154 1 1 0.96875 1 0.96875 0.5 0.96875 1 0.9375 1 0.9375 0.5 0.9375 1 0.90625 1 0.90625 0.5 0.90625 1 0.875 1 0.875 0.5 0.875 1 0.84375 1 0.84375 0.5 0.84375 1 0.8125 1 0.8125 0.5 0.8125 1 0.78125 1 0.78125 0.5 0.78125 1 0.75 1 0.75 0.5 0.75 1 0.71875 1 0.71875 0.5 0.71875 1 0.6875 1 0.6875 0.5 0.6875 1 0.65625 1 0.65625 0.5 0.65625 1 0.625 1 0.625 0.5 0.625 1 0.59375 1 0.59375 0.5 0.59375 1 0.5625 1 0.5625 0.5 0.5625 1 0.53125 1 0.53125 0.5 0.53125 1 0.5 1 0.5 0.5 0.5 1 0.46875 1 0.46875 0.5 0.46875 1 0.4375 1 0.4375 0.5 0.4375 1 0.40625 1 0.40625 0.5 0.40625 1 0.375 1 0.375 0.5 0.375 1 0.34375 1 0.34375 0.5 0.34375 1 0.3125 1 0.3125 0.5 0.3125 1 0.28125 1 0.28125 0.5 0.28125 1 0.25 1 0.25 0.5 0.25 1 0.21875 1 0.21875 0.5 0.21875 1 0.1875 1 0.1875 0.5 0.1875 1 0.15625 1 0.15625 0.5 0.15625 1 0.125 1 0.125 0.5 0.125 1 0.09375 1 0.09375 0.5 0.09375 1 0.0625 1 0.0625 0.5 0.341844 0.4717311 0.2968217 0.4853885 0.2968217 0.01461154 0.2968217 0.4853885 0.25 0.49 0.25 0.00999999 0.25 0.49 0.2031783 0.4853885 0.2031783 0.01461154 0.2031783 0.4853885 0.1581559 0.4717311 0.1581559 0.02826887 0.1581559 0.4717311 0.1166631 0.4495527 0.1581559 0.02826887 0.1166631 0.4495527 0.08029437 0.4197056 0.1166631 0.05044728 0.1581559 0.02826887 0.1166631 0.4495527 0.1166631 0.05044728 0.08029437 0.4197056 0.05044728 0.3833369 0.08029437 0.08029437 0.05044728 0.3833369 0.02826887 0.341844 0.05044728 0.1166631 0.08029437 0.08029437 0.05044728 0.3833369 0.05044728 0.1166631 0.02826887 0.341844 0.01461154 0.2968217 0.02826887 0.1581559 0.01461154 0.2968217 0.00999999 0.25 0.01461154 0.2031783 0.02826887 0.1581559 0.01461154 0.2968217 0.01461154 0.2031783 0.02826887 0.1581559 0.05044728 0.1166631 0.02826887 0.341844 0.08029437 0.08029437 0.1166631 0.05044728 0.08029437 0.4197056 0.1581559 0.02826887 0.2031783 0.01461154 0.2031783 0.4853885 0.2031783 0.01461154 0.25 0.00999999 0.25 0.49 0.25 0.00999999 0.2968217 0.01461154 0.2968217 0.4853885 0.2968217 0.01461154 0.341844 0.02826887 0.341844 0.4717311 0.341844 0.02826887 0.3833369 0.05044728 0.341844 0.4717311 0.3833369 0.05044728 0.4197056 0.08029437 0.3833369 0.4495527 0.341844 0.4717311 0.3833369 0.05044728 0.3833369 0.4495527 0.4197056 0.08029437 0.4495527 0.1166631 0.4197056 0.4197056 0.4495527 0.1166631 0.4717311 0.1581559 0.4495527 0.3833369 0.4197056 0.4197056 0.4495527 0.1166631 0.4495527 0.3833369 0.4717311 0.1581559 0.4853885 0.2031783 0.4853885 0.2968217 0.4853885 0.2031783 0.49 0.25 0.4853885 0.2968217 0.4853885 0.2968217 0.4717311 0.341844 0.4717311 0.1581559 0.4717311 0.341844 0.4495527 0.3833369 0.4717311 0.1581559 0.0625 1 0.03125 1 0.03125 0.5 0.03125 1 0 1 0 0.5 0.7031784 0.4853885 0.75 0.49 0.75 0.00999999 0.75 0.49 0.7968217 0.4853885 0.7968217 0.01461154 0.7968217 0.4853885 0.841844 0.4717311 0.7968217 0.01461154 0.841844 0.4717311 0.8833369 0.4495527 0.841844 0.02826887 0.7968217 0.01461154 0.841844 0.4717311 0.841844 0.02826887 0.8833369 0.4495527 0.9197056 0.4197056 0.9197056 0.08029437 0.9197056 0.4197056 0.9495527 0.3833369 0.9495527 0.1166631 0.9495527 0.3833369 0.9717311 0.341844 0.9495527 0.1166631 0.9717311 0.341844 0.9853885 0.2968217 0.9717311 0.1581559 0.9495527 0.1166631 0.9717311 0.341844 0.9717311 0.1581559 0.9853885 0.2968217 0.99 0.25 0.9853885 0.2031783 0.9853885 0.2031783 0.9717311 0.1581559 0.9853885 0.2968217 0.9495527 0.1166631 0.9197056 0.08029437 0.9197056 0.4197056 0.9197056 0.08029437 0.8833369 0.05044728 0.8833369 0.4495527 0.8833369 0.05044728 0.841844 0.02826887 0.8833369 0.4495527 0.7968217 0.01461154 0.75 0.00999999 0.75 0.49 0.75 0.00999999 0.7031784 0.01461154 0.7031784 0.4853885 0.7031784 0.01461154 0.658156 0.02826887 0.7031784 0.4853885 0.658156 0.02826887 0.6166632 0.05044728 0.658156 0.4717311 0.7031784 0.4853885 0.658156 0.02826887 0.658156 0.4717311 0.6166632 0.05044728 0.5802944 0.08029437 0.5802944 0.4197056 0.5802944 0.08029437 0.5504473 0.1166631 0.5504473 0.3833369 0.5504473 0.1166631 0.5282689 0.1581559 0.5504473 0.3833369 0.5282689 0.1581559 0.5146116 0.2031783 0.5282689 0.341844 0.5504473 0.3833369 0.5282689 0.1581559 0.5282689 0.341844 0.5146116 0.2031783 0.51 0.25 0.5146116 0.2968217 0.5146116 0.2968217 0.5282689 0.341844 0.5146116 0.2031783 0.5504473 0.3833369 0.5802944 0.4197056 0.5802944 0.08029437 0.5802944 0.4197056 0.6166632 0.4495527 0.6166632 0.05044728</float_array>
          <technique_common>
            <accessor source="#Cylinder_005-mesh-map-array" count="744" stride="2">
              <param name="S" type="float"/>
              <param name="T" type="float"/>
            </accessor>
          </technique_common>
        </source>
        <vertices id="Cylinder_005-mesh-vertices">
          <input semantic="POSITION" source="#Cylinder_005-mesh-positions"/>
        </vertices>
        <triangles material="Material_006-material" count="124">
          <input semantic="VERTEX" source="#Cylinder_005-mesh-vertices" offset="0"/>
          <input semantic="NORMAL" source="#Cylinder_005-mesh-normals" offset="1"/>
          <input semantic="TEXCOORD" source="#Cylinder_005-mesh-map" offset="2" set="0"/>
          <p>1 0 0 2 0 1 0 0 2 3 1 3 4 1 4 2 1 5 5 2 6 6 2 7 4 2 8 7 3 9 8 3 10 6 3 11 9 4 12 10 4 13 8 4 14 11 5 15 12 5 16 10 5 17 13 6 18 14 6 19 12 6 20 15 7 21 16 7 22 14 7 23 17 8 24 18 8 25 16 8 26 19 9 27 20 9 28 18 9 29 21 10 30 22 10 31 20 10 32 23 11 33 24 11 34 22 11 35 25 12 36 26 12 37 24 12 38 27 13 39 28 13 40 26 13 41 29 14 42 30 14 43 28 14 44 31 15 45 32 15 46 30 15 47 33 16 48 34 16 49 32 16 50 35 17 51 36 17 52 34 17 53 37 18 54 38 18 55 36 18 56 39 19 57 40 19 58 38 19 59 41 20 60 42 20 61 40 20 62 43 21 63 44 21 64 42 21 65 45 22 66 46 22 67 44 22 68 47 23 69 48 23 70 46 23 71 49 24 72 50 24 73 48 24 74 51 25 75 52 25 76 50 25 77 53 26 78 54 26 79 52 26 80 55 27 81 56 27 82 54 27 83 57 28 84 58 28 85 56 28 86 59 29 87 60 29 88 58 29 89 37 30 90 21 30 91 5 30 92 61 31 93 62 31 94 60 31 95 63 32 96 0 32 97 62 32 98 30 33 99 46 33 100 62 33 101 1 68 204 3 68 205 2 68 206 3 69 207 5 69 208 4 69 209 5 70 210 7 70 211 6 70 212 7 71 213 9 71 214 8 71 215 9 72 216 11 72 217 10 72 218 11 73 219 13 73 220 12 73 221 13 74 222 15 74 223 14 74 224 15 75 225 17 75 226 16 75 227 17 76 228 19 76 229 18 76 230 19 77 231 21 77 232 20 77 233 21 78 234 23 78 235 22 78 236 23 79 237 25 79 238 24 79 239 25 80 240 27 80 241 26 80 242 27 81 243 29 81 244 28 81 245 29 82 246 31 82 247 30 82 248 31 83 249 33 83 250 32 83 251 33 84 252 35 84 253 34 84 254 35 85 255 37 85 256 36 85 257 37 86 258 39 86 259 38 86 260 39 87 261 41 87 262 40 87 263 41 88 264 43 88 265 42 88 266 43 89 267 45 89 268 44 89 269 45 90 270 47 90 271 46 90 272 47 91 273 49 91 274 48 91 275 49 92 276 51 92 277 50 92 278 51 93 279 53 93 280 52 93 281 53 94 282 55 94 283 54 94 284 55 95 285 57 95 286 56 95 287 57 96 288 59 96 289 58 96 290 59 97 291 61 97 292 60 97 293 5 98 294 3 98 295 1 98 296 1 99 297 63 99 298 5 99 299 63 100 300 61 100 301 5 100 302 61 101 303 59 101 304 57 101 305 57 102 306 55 102 307 53 102 308 53 103 309 51 103 310 49 103 311 49 104 312 47 104 313 53 104 314 47 105 315 45 105 316 53 105 317 45 106 318 43 106 319 41 106 320 41 107 321 39 107 322 37 107 323 37 108 324 35 108 325 29 108 326 35 109 327 33 109 328 29 109 329 33 110 330 31 110 331 29 110 332 29 111 333 27 111 334 25 111 335 25 112 336 23 112 337 21 112 338 21 113 339 19 113 340 13 113 341 19 114 342 17 114 343 13 114 344 17 115 345 15 115 346 13 115 347 13 116 348 11 116 349 9 116 350 9 117 351 7 117 352 5 117 353 61 118 354 57 118 355 5 118 356 57 119 357 53 119 358 5 119 359 45 120 360 41 120 361 53 120 362 41 121 363 37 121 364 53 121 365 29 122 366 25 122 367 37 122 368 25 123 369 21 123 370 37 123 371 13 124 372 9 124 373 21 124 374 9 125 375 5 125 376 21 125 377 5 126 378 53 126 379 37 126 380 61 127 381 63 127 382 62 127 383 63 128 384 1 128 385 0 128 386 62 129 387 0 129 388 2 129 389 2 130 390 4 130 391 6 130 392 6 131 393 8 131 394 10 131 395 10 132 396 12 132 397 14 132 398 14 133 399 16 133 400 18 133 401 18 134 402 20 134 403 22 134 404 22 135 405 24 135 406 26 135 407 26 136 408 28 136 409 30 136 410 30 137 411 32 137 412 34 137 413 34 138 414 36 138 415 38 138 416 38 139 417 40 139 418 42 139 419 42 140 420 44 140 421 46 140 422 46 141 423 48 141 424 50 141 425 50 142 426 52 142 427 54 142 428 54 143 429 56 143 430 58 143 431 58 144 432 60 144 433 62 144 434 62 145 435 2 145 436 14 145 437 2 146 438 6 146 439 14 146 440 6 147 441 10 147 442 14 147 443 14 148 444 18 148 445 30 148 446 18 149 447 22 149 448 30 149 449 22 150 450 26 150 451 30 150 452 30 151 453 34 151 454 46 151 455 34 152 456 38 152 457 46 152 458 38 153 459 42 153 460 46 153 461 46 154 462 50 154 463 62 154 464 50 155 465 54 155 466 62 155 467 54 156 468 58 156 469 62 156 470 62 157 471 14 157 472 30 157 473</p>
        </triangles>
        <triangles material="Material_004-material" count="124">
          <input semantic="VERTEX" source="#Cylinder_005-mesh-vertices" offset="0"/>
          <input semantic="NORMAL" source="#Cylinder_005-mesh-normals" offset="1"/>
          <input semantic="TEXCOORD" source="#Cylinder_005-mesh-map" offset="2" set="0"/>
          <p>65 34 102 66 34 103 64 34 104 67 35 105 68 35 106 66 35 107 69 36 108 70 36 109 68 36 110 71 37 111 72 37 112 70 37 113 73 38 114 74 38 115 72 38 116 75 39 117 76 39 118 74 39 119 77 40 120 78 40 121 76 40 122 79 41 123 80 41 124 78 41 125 81 42 126 82 42 127 80 42 128 83 43 129 84 43 130 82 43 131 85 44 132 86 44 133 84 44 134 87 45 135 88 45 136 86 45 137 89 46 138 90 46 139 88 46 140 91 47 141 92 47 142 90 47 143 93 48 144 94 48 145 92 48 146 95 49 147 96 49 148 94 49 149 97 50 150 98 50 151 96 50 152 99 51 153 100 51 154 98 51 155 101 52 156 102 52 157 100 52 158 103 53 159 104 53 160 102 53 161 105 54 162 106 54 163 104 54 164 107 55 165 108 55 166 106 55 167 109 56 168 110 56 169 108 56 170 111 57 171 112 57 172 110 57 173 113 58 174 114 58 175 112 58 176 115 59 177 116 59 178 114 59 179 117 60 180 118 60 181 116 60 182 119 61 183 120 61 184 118 61 185 121 62 186 122 62 187 120 62 188 123 63 189 124 63 190 122 63 191 73 64 192 71 64 193 89 64 194 125 65 195 126 65 196 124 65 197 127 66 198 64 66 199 126 66 200 122 67 201 124 67 202 102 67 203 65 158 474 67 158 475 66 158 476 67 159 477 69 159 478 68 159 479 69 160 480 71 160 481 70 160 482 71 161 483 73 161 484 72 161 485 73 162 486 75 162 487 74 162 488 75 163 489 77 163 490 76 163 491 77 164 492 79 164 493 78 164 494 79 165 495 81 165 496 80 165 497 81 166 498 83 166 499 82 166 500 83 167 501 85 167 502 84 167 503 85 168 504 87 168 505 86 168 506 87 169 507 89 169 508 88 169 509 89 170 510 91 170 511 90 170 512 91 171 513 93 171 514 92 171 515 93 172 516 95 172 517 94 172 518 95 173 519 97 173 520 96 173 521 97 174 522 99 174 523 98 174 524 99 175 525 101 175 526 100 175 527 101 176 528 103 176 529 102 176 530 103 177 531 105 177 532 104 177 533 105 178 534 107 178 535 106 178 536 107 179 537 109 179 538 108 179 539 109 180 540 111 180 541 110 180 542 111 181 543 113 181 544 112 181 545 113 182 546 115 182 547 114 182 548 115 183 549 117 183 550 116 183 551 117 184 552 119 184 553 118 184 554 119 185 555 121 185 556 120 185 557 121 186 558 123 186 559 122 186 560 123 187 561 125 187 562 124 187 563 69 188 564 67 188 565 95 188 566 67 189 567 65 189 568 97 189 569 65 190 570 127 190 571 99 190 572 127 191 573 125 191 574 101 191 575 125 192 576 123 192 577 101 192 578 123 193 579 121 193 580 103 193 581 101 194 582 123 194 583 103 194 584 121 195 585 119 195 586 105 195 587 119 196 588 117 196 589 107 196 590 105 197 591 119 197 592 107 197 593 117 198 594 115 198 595 109 198 596 115 199 597 113 199 598 111 199 599 109 200 600 115 200 601 111 200 602 109 201 603 107 201 604 117 201 605 105 202 606 103 202 607 121 202 608 101 203 609 99 203 610 127 203 611 99 204 612 97 204 613 65 204 614 97 205 615 95 205 616 67 205 617 95 206 618 93 206 619 69 206 620 93 207 621 91 207 622 69 207 623 91 208 624 89 208 625 71 208 626 69 209 627 91 209 628 71 209 629 89 210 630 87 210 631 73 210 632 87 211 633 85 211 634 75 211 635 73 212 636 87 212 637 75 212 638 85 213 639 83 213 640 79 213 641 83 214 642 81 214 643 79 214 644 79 215 645 77 215 646 85 215 647 77 216 648 75 216 649 85 216 650 125 217 651 127 217 652 126 217 653 127 218 654 65 218 655 64 218 656 126 219 657 64 219 658 96 219 659 64 220 660 66 220 661 94 220 662 66 221 663 68 221 664 94 221 665 68 222 666 70 222 667 92 222 668 94 223 669 68 223 670 92 223 671 70 224 672 72 224 673 88 224 674 72 225 675 74 225 676 86 225 677 74 226 678 76 226 679 86 226 680 76 227 681 78 227 682 84 227 683 86 228 684 76 228 685 84 228 686 78 229 687 80 229 688 82 229 689 82 230 690 84 230 691 78 230 692 86 231 693 88 231 694 72 231 695 88 232 696 90 232 697 70 232 698 90 233 699 92 233 700 70 233 701 94 234 702 96 234 703 64 234 704 96 235 705 98 235 706 126 235 707 98 236 708 100 236 709 126 236 710 100 237 711 102 237 712 124 237 713 126 238 714 100 238 715 124 238 716 102 239 717 104 239 718 120 239 719 104 240 720 106 240 721 118 240 722 106 241 723 108 241 724 118 241 725 108 242 726 110 242 727 116 242 728 118 243 729 108 243 730 116 243 731 110 244 732 112 244 733 114 244 734 114 245 735 116 245 736 110 245 737 118 246 738 120 246 739 104 246 740 120 247 741 122 247 742 102 247 743</p>
        </triangles>
      </mesh>
    </geometry>
  </library_geometries>
  <library_visual_scenes>
    <visual_scene id="Scene" name="Scene">
      <node id="hip" name="hip" type="NODE">
        <matrix sid="transform">0.01283155 0.04213447 0.003662754 0 -0.01031429 -0.008284066 0.01455996 0.04603263 0.04377391 -0.01430292 0.002357039 0 0 0 0 1</matrix>
        <instance_geometry url="#Cylinder_005-mesh" name="hip">
          <bind_material>
            <technique_common>
              <instance_material symbol="Material_006-material" target="#Material_006-material"/>
              <instance_material symbol="Material_004-material" target="#Material_004-material"/>
            </technique_common>
          </bind_material>
        </instance_geometry>
      </node>
    </visual_scene>
  </library_visual_scenes>
  <scene>
    <instance_visual_scene url="#Scene"/>
  </scene>
</COLLADA>